<?xml version="1.0" encoding="utf-8" ?>
<svg baseProfile="full" height="1080px" version="1.1" viewBox="0,0,1700,1080" width="1700px" xmlns="http://www.w3.org/2000/svg" xmlns:ev="http://www.w3.org/2001/xml-events" xmlns:xlink="http://www.w3.org/1999/xlink"><defs /><rect fill="#fbfdff" height="1080" width="1700" x="0" y="0" /><text fill="#10284d" font-family="Arial" font-size="30" font-weight="bold" text-anchor="middle" x="780" y="44">Approval Flow Matrix</text><rect fill="#eaf4ff" height="74" rx="18" ry="18" stroke="#183a75" stroke-width="2" width="390" x="90" y="90" /><text fill="#12284d" font-family="Arial" font-size="18" font-weight="bold" x="106" y="116">Advisor Change</text><rect fill="#eef8ff" height="82" rx="18" ry="18" stroke="#183a75" stroke-width="2" width="350" x="110" y="210" /><text fill="#12284d" font-family="Arial" font-size="18" font-weight="bold" x="126" y="236">Student/Advisor request</text><text fill="#4d6287" font-family="Arial" font-size="13" x="126" y="262">timed gate / audit trail</text><line stroke="#40649a" stroke-width="3" x1="285" x2="285" y1="292" y2="330" /><polygon fill="#40649a" points="285,330 277,316 293,316" /><rect fill="#fff7e8" height="82" rx="18" ry="18" stroke="#183a75" stroke-width="2" width="350" x="110" y="338" /><text fill="#12284d" font-family="Arial" font-size="18" font-weight="bold" x="126" y="364">Admin review</text><text fill="#4d6287" font-family="Arial" font-size="13" x="126" y="390">timed gate / audit trail</text><line stroke="#40649a" stroke-width="3" x1="285" x2="285" y1="420" y2="458" /><polygon fill="#40649a" points="285,458 277,444 293,444" /><rect fill="#eef8ff" height="82" rx="18" ry="18" stroke="#183a75" stroke-width="2" width="350" x="110" y="466" /><text fill="#12284d" font-family="Arial" font-size="18" font-weight="bold" x="126" y="492">Old advisor opinion</text><text fill="#4d6287" font-family="Arial" font-size="13" x="126" y="518">timed gate / audit trail</text><line stroke="#40649a" stroke-width="3" x1="285" x2="285" y1="548" y2="586" /><polygon fill="#40649a" points="285,586 277,572 293,572" /><rect fill="#fff7e8" height="82" rx="18" ry="18" stroke="#183a75" stroke-width="2" width="350" x="110" y="594" /><text fill="#12284d" font-family="Arial" font-size="18" font-weight="bold" x="126" y="620">New advisor confirm</text><text fill="#4d6287" font-family="Arial" font-size="13" x="126" y="646">timed gate / audit trail</text><line stroke="#40649a" stroke-width="3" x1="285" x2="285" y1="676" y2="714" /><polygon fill="#40649a" points="285,714 277,700 293,700" /><rect fill="#eef8ff" height="82" rx="18" ry="18" stroke="#183a75" stroke-width="2" width="350" x="110" y="722" /><text fill="#12284d" font-family="Arial" font-size="18" font-weight="bold" x="126" y="748">Permission switch</text><text fill="#4d6287" font-family="Arial" font-size="13" x="126" y="774">timed gate / audit trail</text><rect fill="#eaf4ff" height="74" rx="18" ry="18" stroke="#183a75" stroke-width="2" width="390" x="580" y="90" /><text fill="#12284d" font-family="Arial" font-size="18" font-weight="bold" x="596" y="116">Outbound Study</text><rect fill="#eef8ff" height="82" rx="18" ry="18" stroke="#183a75" stroke-width="2" width="350" x="600" y="210" /><text fill="#12284d" font-family="Arial" font-size="18" font-weight="bold" x="616" y="236">Student apply</text><text fill="#4d6287" font-family="Arial" font-size="13" x="616" y="262">timed gate / audit trail</text><line stroke="#40649a" stroke-width="3" x1="775" x2="775" y1="292" y2="330" /><polygon fill="#40649a" points="775,330 767,316 783,316" /><rect fill="#fff7e8" height="82" rx="18" ry="18" stroke="#183a75" stroke-width="2" width="350" x="600" y="338" /><text fill="#12284d" font-family="Arial" font-size="18" font-weight="bold" x="616" y="364">Advisor approve</text><text fill="#4d6287" font-family="Arial" font-size="13" x="616" y="390">timed gate / audit trail</text><line stroke="#40649a" stroke-width="3" x1="775" x2="775" y1="420" y2="458" /><polygon fill="#40649a" points="775,458 767,444 783,444" /><rect fill="#eef8ff" height="82" rx="18" ry="18" stroke="#183a75" stroke-width="2" width="350" x="600" y="466" /><text fill="#12284d" font-family="Arial" font-size="18" font-weight="bold" x="616" y="492">Admin record</text><text fill="#4d6287" font-family="Arial" font-size="13" x="616" y="518">timed gate / audit trail</text><line stroke="#40649a" stroke-width="3" x1="775" x2="775" y1="548" y2="586" /><polygon fill="#40649a" points="775,586 767,572 783,572" /><rect fill="#fff7e8" height="82" rx="18" ry="18" stroke="#183a75" stroke-width="2" width="350" x="600" y="594" /><text fill="#12284d" font-family="Arial" font-size="18" font-weight="bold" x="616" y="620">Feishu/OA sync</text><text fill="#4d6287" font-family="Arial" font-size="13" x="616" y="646">timed gate / audit trail</text><line stroke="#40649a" stroke-width="3" x1="775" x2="775" y1="676" y2="714" /><polygon fill="#40649a" points="775,714 767,700 783,700" /><rect fill="#eef8ff" height="82" rx="18" ry="18" stroke="#183a75" stroke-width="2" width="350" x="600" y="722" /><text fill="#12284d" font-family="Arial" font-size="18" font-weight="bold" x="616" y="748">Return evaluation</text><text fill="#4d6287" font-family="Arial" font-size="13" x="616" y="774">timed gate / audit trail</text><rect fill="#eaf4ff" height="74" rx="18" ry="18" stroke="#183a75" stroke-width="2" width="390" x="1070" y="90" /><text fill="#12284d" font-family="Arial" font-size="18" font-weight="bold" x="1086" y="116">Degree Application</text><rect fill="#eef8ff" height="82" rx="18" ry="18" stroke="#183a75" stroke-width="2" width="350" x="1090" y="210" /><text fill="#12284d" font-family="Arial" font-size="18" font-weight="bold" x="1106" y="236">Submit thesis</text><text fill="#4d6287" font-family="Arial" font-size="13" x="1106" y="262">timed gate / audit trail</text><line stroke="#40649a" stroke-width="3" x1="1265" x2="1265" y1="292" y2="330" /><polygon fill="#40649a" points="1265,330 1257,316 1273,316" /><rect fill="#fff7e8" height="82" rx="18" ry="18" stroke="#183a75" stroke-width="2" width="350" x="1090" y="338" /><text fill="#12284d" font-family="Arial" font-size="18" font-weight="bold" x="1106" y="364">Plagiarism check</text><text fill="#4d6287" font-family="Arial" font-size="13" x="1106" y="390">timed gate / audit trail</text><line stroke="#40649a" stroke-width="3" x1="1265" x2="1265" y1="420" y2="458" /><polygon fill="#40649a" points="1265,458 1257,444 1273,444" /><rect fill="#eef8ff" height="82" rx="18" ry="18" stroke="#183a75" stroke-width="2" width="350" x="1090" y="466" /><text fill="#12284d" font-family="Arial" font-size="18" font-weight="bold" x="1106" y="492">Blind review x3</text><text fill="#4d6287" font-family="Arial" font-size="13" x="1106" y="518">timed gate / audit trail</text><line stroke="#40649a" stroke-width="3" x1="1265" x2="1265" y1="548" y2="586" /><polygon fill="#40649a" points="1265,586 1257,572 1273,572" /><rect fill="#fff7e8" height="82" rx="18" ry="18" stroke="#183a75" stroke-width="2" width="350" x="1090" y="594" /><text fill="#12284d" font-family="Arial" font-size="18" font-weight="bold" x="1106" y="620">Pre-defense</text><text fill="#4d6287" font-family="Arial" font-size="13" x="1106" y="646">timed gate / audit trail</text><line stroke="#40649a" stroke-width="3" x1="1265" x2="1265" y1="676" y2="714" /><polygon fill="#40649a" points="1265,714 1257,700 1273,700" /><rect fill="#eef8ff" height="82" rx="18" ry="18" stroke="#183a75" stroke-width="2" width="350" x="1090" y="722" /><text fill="#12284d" font-family="Arial" font-size="18" font-weight="bold" x="1106" y="748">Defense &amp; grant</text><text fill="#4d6287" font-family="Arial" font-size="13" x="1106" y="774">timed gate / audit trail</text></svg>