<?xml version="1.0" encoding="utf-8" ?>
<svg baseProfile="full" height="1080px" version="1.1" viewBox="0,0,1700,1080" width="1700px" xmlns="http://www.w3.org/2000/svg" xmlns:ev="http://www.w3.org/2001/xml-events" xmlns:xlink="http://www.w3.org/1999/xlink"><defs /><rect fill="#fbfdff" height="1080" width="1700" x="0" y="0" /><text fill="#10284d" font-family="Microsoft YaHei" font-size="30" font-weight="bold" text-anchor="middle" x="850" y="44">审批流程矩阵图</text><rect fill="#eaf4ff" height="74" rx="18" ry="18" stroke="#183a75" stroke-width="2" width="390" x="90" y="90" /><text fill="#12284d" font-family="Microsoft YaHei" font-size="18" font-weight="bold" x="106" y="116">导师变更审批</text><rect fill="#eef8ff" height="82" rx="18" ry="18" stroke="#183a75" stroke-width="2" width="350" x="110" y="210" /><text fill="#12284d" font-family="Microsoft YaHei" font-size="18" font-weight="bold" x="126" y="236">学生/导师发起</text><text fill="#4d6287" font-family="Microsoft YaHei" font-size="13" x="126" y="262">时限控制 / 审计留痕</text><line stroke="#40649a" stroke-width="3" x1="285" x2="285" y1="292" y2="330" /><polygon fill="#40649a" points="285,330 277,316 293,316" /><rect fill="#fff7e8" height="82" rx="18" ry="18" stroke="#183a75" stroke-width="2" width="350" x="110" y="338" /><text fill="#12284d" font-family="Microsoft YaHei" font-size="18" font-weight="bold" x="126" y="364">管理员审核</text><text fill="#4d6287" font-family="Microsoft YaHei" font-size="13" x="126" y="390">时限控制 / 审计留痕</text><line stroke="#40649a" stroke-width="3" x1="285" x2="285" y1="420" y2="458" /><polygon fill="#40649a" points="285,458 277,444 293,444" /><rect fill="#eef8ff" height="82" rx="18" ry="18" stroke="#183a75" stroke-width="2" width="350" x="110" y="466" /><text fill="#12284d" font-family="Microsoft YaHei" font-size="18" font-weight="bold" x="126" y="492">原导师意见</text><text fill="#4d6287" font-family="Microsoft YaHei" font-size="13" x="126" y="518">时限控制 / 审计留痕</text><line stroke="#40649a" stroke-width="3" x1="285" x2="285" y1="548" y2="586" /><polygon fill="#40649a" points="285,586 277,572 293,572" /><rect fill="#fff7e8" height="82" rx="18" ry="18" stroke="#183a75" stroke-width="2" width="350" x="110" y="594" /><text fill="#12284d" font-family="Microsoft YaHei" font-size="18" font-weight="bold" x="126" y="620">新导师确认</text><text fill="#4d6287" font-family="Microsoft YaHei" font-size="13" x="126" y="646">时限控制 / 审计留痕</text><line stroke="#40649a" stroke-width="3" x1="285" x2="285" y1="676" y2="714" /><polygon fill="#40649a" points="285,714 277,700 293,700" /><rect fill="#eef8ff" height="82" rx="18" ry="18" stroke="#183a75" stroke-width="2" width="350" x="110" y="722" /><text fill="#12284d" font-family="Microsoft YaHei" font-size="18" font-weight="bold" x="126" y="748">权限切换</text><text fill="#4d6287" font-family="Microsoft YaHei" font-size="13" x="126" y="774">时限控制 / 审计留痕</text><rect fill="#eaf4ff" height="74" rx="18" ry="18" stroke="#183a75" stroke-width="2" width="390" x="580" y="90" /><text fill="#12284d" font-family="Microsoft YaHei" font-size="18" font-weight="bold" x="596" y="116">外出研修审批</text><rect fill="#eef8ff" height="82" rx="18" ry="18" stroke="#183a75" stroke-width="2" width="350" x="600" y="210" /><text fill="#12284d" font-family="Microsoft YaHei" font-size="18" font-weight="bold" x="616" y="236">学生申请</text><text fill="#4d6287" font-family="Microsoft YaHei" font-size="13" x="616" y="262">时限控制 / 审计留痕</text><line stroke="#40649a" stroke-width="3" x1="775" x2="775" y1="292" y2="330" /><polygon fill="#40649a" points="775,330 767,316 783,316" /><rect fill="#fff7e8" height="82" rx="18" ry="18" stroke="#183a75" stroke-width="2" width="350" x="600" y="338" /><text fill="#12284d" font-family="Microsoft YaHei" font-size="18" font-weight="bold" x="616" y="364">导师审核</text><text fill="#4d6287" font-family="Microsoft YaHei" font-size="13" x="616" y="390">时限控制 / 审计留痕</text><line stroke="#40649a" stroke-width="3" x1="775" x2="775" y1="420" y2="458" /><polygon fill="#40649a" points="775,458 767,444 783,444" /><rect fill="#eef8ff" height="82" rx="18" ry="18" stroke="#183a75" stroke-width="2" width="350" x="600" y="466" /><text fill="#12284d" font-family="Microsoft YaHei" font-size="18" font-weight="bold" x="616" y="492">管理员备案</text><text fill="#4d6287" font-family="Microsoft YaHei" font-size="13" x="616" y="518">时限控制 / 审计留痕</text><line stroke="#40649a" stroke-width="3" x1="775" x2="775" y1="548" y2="586" /><polygon fill="#40649a" points="775,586 767,572 783,572" /><rect fill="#fff7e8" height="82" rx="18" ry="18" stroke="#183a75" stroke-width="2" width="350" x="600" y="594" /><text fill="#12284d" font-family="Microsoft YaHei" font-size="18" font-weight="bold" x="616" y="620">飞书/OA 同步</text><text fill="#4d6287" font-family="Microsoft YaHei" font-size="13" x="616" y="646">时限控制 / 审计留痕</text><line stroke="#40649a" stroke-width="3" x1="775" x2="775" y1="676" y2="714" /><polygon fill="#40649a" points="775,714 767,700 783,700" /><rect fill="#eef8ff" height="82" rx="18" ry="18" stroke="#183a75" stroke-width="2" width="350" x="600" y="722" /><text fill="#12284d" font-family="Microsoft YaHei" font-size="18" font-weight="bold" x="616" y="748">归来评估</text><text fill="#4d6287" font-family="Microsoft YaHei" font-size="13" x="616" y="774">时限控制 / 审计留痕</text><rect fill="#eaf4ff" height="74" rx="18" ry="18" stroke="#183a75" stroke-width="2" width="390" x="1070" y="90" /><text fill="#12284d" font-family="Microsoft YaHei" font-size="18" font-weight="bold" x="1086" y="116">学位申请审批</text><rect fill="#eef8ff" height="82" rx="18" ry="18" stroke="#183a75" stroke-width="2" width="350" x="1090" y="210" /><text fill="#12284d" font-family="Microsoft YaHei" font-size="18" font-weight="bold" x="1106" y="236">提交论文</text><text fill="#4d6287" font-family="Microsoft YaHei" font-size="13" x="1106" y="262">时限控制 / 审计留痕</text><line stroke="#40649a" stroke-width="3" x1="1265" x2="1265" y1="292" y2="330" /><polygon fill="#40649a" points="1265,330 1257,316 1273,316" /><rect fill="#fff7e8" height="82" rx="18" ry="18" stroke="#183a75" stroke-width="2" width="350" x="1090" y="338" /><text fill="#12284d" font-family="Microsoft YaHei" font-size="18" font-weight="bold" x="1106" y="364">查重核验</text><text fill="#4d6287" font-family="Microsoft YaHei" font-size="13" x="1106" y="390">时限控制 / 审计留痕</text><line stroke="#40649a" stroke-width="3" x1="1265" x2="1265" y1="420" y2="458" /><polygon fill="#40649a" points="1265,458 1257,444 1273,444" /><rect fill="#eef8ff" height="82" rx="18" ry="18" stroke="#183a75" stroke-width="2" width="350" x="1090" y="466" /><text fill="#12284d" font-family="Microsoft YaHei" font-size="18" font-weight="bold" x="1106" y="492">3 位盲审</text><text fill="#4d6287" font-family="Microsoft YaHei" font-size="13" x="1106" y="518">时限控制 / 审计留痕</text><line stroke="#40649a" stroke-width="3" x1="1265" x2="1265" y1="548" y2="586" /><polygon fill="#40649a" points="1265,586 1257,572 1273,572" /><rect fill="#fff7e8" height="82" rx="18" ry="18" stroke="#183a75" stroke-width="2" width="350" x="1090" y="594" /><text fill="#12284d" font-family="Microsoft YaHei" font-size="18" font-weight="bold" x="1106" y="620">预答辩</text><text fill="#4d6287" font-family="Microsoft YaHei" font-size="13" x="1106" y="646">时限控制 / 审计留痕</text><line stroke="#40649a" stroke-width="3" x1="1265" x2="1265" y1="676" y2="714" /><polygon fill="#40649a" points="1265,714 1257,700 1273,700" /><rect fill="#eef8ff" height="82" rx="18" ry="18" stroke="#183a75" stroke-width="2" width="350" x="1090" y="722" /><text fill="#12284d" font-family="Microsoft YaHei" font-size="18" font-weight="bold" x="1106" y="748">答辩与授位</text><text fill="#4d6287" font-family="Microsoft YaHei" font-size="13" x="1106" y="774">时限控制 / 审计留痕</text></svg>