<?xml version="1.0" encoding="utf-8" ?>
<svg baseProfile="full" height="620px" version="1.1" viewBox="0,0,1740,620" width="1740px" xmlns="http://www.w3.org/2000/svg" xmlns:ev="http://www.w3.org/2001/xml-events" xmlns:xlink="http://www.w3.org/1999/xlink"><defs /><rect fill="#fbfdff" height="620" width="1740" x="0" y="0" /><text fill="#10284d" font-family="Arial" font-size="30" font-weight="bold" text-anchor="middle" x="800" y="46">DTLMS End-to-End Business Flow</text><rect fill="#eef5ff" height="100" rx="18" ry="18" stroke="#183a75" stroke-width="2" width="170" x="70" y="180" /><text fill="#12284d" font-family="Arial" font-size="18" font-weight="bold" x="86" y="206">Recruitment</text><text fill="#4d6287" font-family="Arial" font-size="13" x="86" y="232">Apply / Review / Score</text><rect fill="#eef5ff" height="100" rx="18" ry="18" stroke="#183a75" stroke-width="2" width="170" x="255" y="180" /><text fill="#12284d" font-family="Arial" font-size="18" font-weight="bold" x="271" y="206">Admission</text><text fill="#4d6287" font-family="Arial" font-size="13" x="271" y="232">Interview / Pre-admit / Enroll</text><rect fill="#eef5ff" height="100" rx="18" ry="18" stroke="#183a75" stroke-width="2" width="170" x="440" y="180" /><text fill="#12284d" font-family="Arial" font-size="18" font-weight="bold" x="456" y="206">Advisor Link</text><text fill="#4d6287" font-family="Arial" font-size="13" x="456" y="232">Confirm / Change / Grant</text><rect fill="#eef5ff" height="100" rx="18" ry="18" stroke="#183a75" stroke-width="2" width="170" x="625" y="180" /><text fill="#12284d" font-family="Arial" font-size="18" font-weight="bold" x="641" y="206">Training Plan</text><text fill="#4d6287" font-family="Arial" font-size="13" x="641" y="232">Create / Confirm / Version</text><rect fill="#eef5ff" height="100" rx="18" ry="18" stroke="#183a75" stroke-width="2" width="170" x="810" y="180" /><text fill="#12284d" font-family="Arial" font-size="18" font-weight="bold" x="826" y="206">Research Report</text><text fill="#4d6287" font-family="Arial" font-size="13" x="826" y="232">Submit / Review / Alert</text><rect fill="#eef5ff" height="100" rx="18" ry="18" stroke="#183a75" stroke-width="2" width="170" x="995" y="180" /><text fill="#12284d" font-family="Arial" font-size="18" font-weight="bold" x="1011" y="206">Outbound Study</text><text fill="#4d6287" font-family="Arial" font-size="13" x="1011" y="232">Apply / Approve / Evaluate</text><rect fill="#eef5ff" height="100" rx="18" ry="18" stroke="#183a75" stroke-width="2" width="170" x="1180" y="180" /><text fill="#12284d" font-family="Arial" font-size="18" font-weight="bold" x="1196" y="206">Degree Process</text><text fill="#4d6287" font-family="Arial" font-size="13" x="1196" y="232">Check / Review / Defense</text><rect fill="#eef5ff" height="100" rx="18" ry="18" stroke="#183a75" stroke-width="2" width="170" x="1365" y="180" /><text fill="#12284d" font-family="Arial" font-size="18" font-weight="bold" x="1381" y="206">Graduate &amp; Track</text><text fill="#4d6287" font-family="Arial" font-size="13" x="1381" y="232">Archive / Leave / Employment</text><line stroke="#40649a" stroke-width="3" x1="155" x2="260" y1="230" y2="230" /><polygon fill="#40649a" points="260,230 246,222 246,238" /><text fill="#40649a" font-family="Arial" font-size="12" text-anchor="middle" x="207.5" y="220.0">master data sync</text><line stroke="#40649a" stroke-width="3" x1="340" x2="445" y1="230" y2="230" /><polygon fill="#40649a" points="445,230 431,222 431,238" /><text fill="#40649a" font-family="Arial" font-size="12" text-anchor="middle" x="392.5" y="220.0">role link</text><line stroke="#40649a" stroke-width="3" x1="525" x2="630" y1="230" y2="230" /><polygon fill="#40649a" points="630,230 616,222 616,238" /><text fill="#40649a" font-family="Arial" font-size="12" text-anchor="middle" x="577.5" y="220.0">rule engine</text><line stroke="#40649a" stroke-width="3" x1="710" x2="815" y1="230" y2="230" /><polygon fill="#40649a" points="815,230 801,222 801,238" /><text fill="#40649a" font-family="Arial" font-size="12" text-anchor="middle" x="762.5" y="220.0">reminder</text><line stroke="#40649a" stroke-width="3" x1="895" x2="1000" y1="230" y2="230" /><polygon fill="#40649a" points="1000,230 986,222 986,238" /><text fill="#40649a" font-family="Arial" font-size="12" text-anchor="middle" x="947.5" y="220.0">approval</text><line stroke="#40649a" stroke-width="3" x1="1080" x2="1185" y1="230" y2="230" /><polygon fill="#40649a" points="1185,230 1171,222 1171,238" /><text fill="#40649a" font-family="Arial" font-size="12" text-anchor="middle" x="1132.5" y="220.0">grant degree</text><line stroke="#40649a" stroke-width="3" x1="1265" x2="1370" y1="230" y2="230" /><polygon fill="#40649a" points="1370,230 1356,222 1356,238" /><text fill="#40649a" font-family="Arial" font-size="12" text-anchor="middle" x="1317.5" y="220.0">archive</text><rect fill="#ebfff5" height="96" rx="18" ry="18" stroke="#183a75" stroke-width="2" width="220" x="520" y="340" /><text fill="#12284d" font-family="Arial" font-size="18" font-weight="bold" x="536" y="366">Audit Trail</text><text fill="#4d6287" font-family="Arial" font-size="13" x="536" y="392">login / operation / sync</text><rect fill="#fff8e8" height="96" rx="18" ry="18" stroke="#183a75" stroke-width="2" width="220" x="840" y="340" /><text fill="#12284d" font-family="Arial" font-size="18" font-weight="bold" x="856" y="366">Cockpit</text><text fill="#4d6287" font-family="Arial" font-size="13" x="856" y="392">KPI / alerts / trend</text><line stroke="#40649a" stroke-width="3" x1="630" x2="630" y1="280" y2="340" /><polygon fill="#40649a" points="630,340 622,326 638,326" /><line stroke="#40649a" stroke-width="3" x1="950" x2="950" y1="280" y2="340" /><polygon fill="#40649a" points="950,340 942,326 958,326" /></svg>