<?xml version="1.0" encoding="utf-8" ?>
<svg baseProfile="full" height="1100px" version="1.1" viewBox="0,0,1800,1100" width="1800px" xmlns="http://www.w3.org/2000/svg" xmlns:ev="http://www.w3.org/2001/xml-events" xmlns:xlink="http://www.w3.org/1999/xlink"><defs /><rect fill="#fbfdff" height="1100" width="1800" x="0" y="0" /><text fill="#10284d" font-family="Arial" font-size="30" font-weight="bold" text-anchor="middle" x="830" y="44">DTLMS Core ER Diagram</text><rect fill="#eaf5ff" height="96" rx="18" ry="18" stroke="#183a75" stroke-width="2" width="300" x="680" y="180" /><text fill="#12284d" font-family="Arial" font-size="18" font-weight="bold" x="696" y="206">Student</text><text fill="#4d6287" font-family="Arial" font-size="13" x="696" y="232">student_no</text><text fill="#4d6287" font-family="Arial" font-size="13" x="696" y="250">status</text><text fill="#4d6287" font-family="Arial" font-size="13" x="696" y="268">primary_advisor_id</text><rect fill="#fff7e8" height="96" rx="18" ry="18" stroke="#183a75" stroke-width="2" width="240" x="330" y="180" /><text fill="#12284d" font-family="Arial" font-size="18" font-weight="bold" x="346" y="206">Advisor</text><text fill="#4d6287" font-family="Arial" font-size="13" x="346" y="232">advisor_no</text><text fill="#4d6287" font-family="Arial" font-size="13" x="346" y="250">quota</text><rect fill="#eefcf2" height="96" rx="18" ry="18" stroke="#183a75" stroke-width="2" width="280" x="1040" y="120" /><text fill="#12284d" font-family="Arial" font-size="18" font-weight="bold" x="1056" y="146">Training Plan</text><text fill="#4d6287" font-family="Arial" font-size="13" x="1056" y="172">student_id</text><text fill="#4d6287" font-family="Arial" font-size="13" x="1056" y="190">version_no</text><text fill="#4d6287" font-family="Arial" font-size="13" x="1056" y="208">plan_status</text><rect fill="#eefcf2" height="96" rx="18" ry="18" stroke="#183a75" stroke-width="2" width="280" x="1040" y="280" /><text fill="#12284d" font-family="Arial" font-size="18" font-weight="bold" x="1056" y="306">Scientific Report</text><text fill="#4d6287" font-family="Arial" font-size="13" x="1056" y="332">student_id</text><text fill="#4d6287" font-family="Arial" font-size="13" x="1056" y="350">period</text><text fill="#4d6287" font-family="Arial" font-size="13" x="1056" y="368">report_status</text><rect fill="#eefcf2" height="96" rx="18" ry="18" stroke="#183a75" stroke-width="2" width="280" x="1040" y="440" /><text fill="#12284d" font-family="Arial" font-size="18" font-weight="bold" x="1056" y="466">Thesis</text><text fill="#4d6287" font-family="Arial" font-size="13" x="1056" y="492">student_id</text><text fill="#4d6287" font-family="Arial" font-size="13" x="1056" y="510">thesis_status</text><text fill="#4d6287" font-family="Arial" font-size="13" x="1056" y="528">degree_granted</text><rect fill="#eefcf2" height="96" rx="18" ry="18" stroke="#183a75" stroke-width="2" width="280" x="1040" y="600" /><text fill="#12284d" font-family="Arial" font-size="18" font-weight="bold" x="1056" y="626">Thesis Review</text><text fill="#4d6287" font-family="Arial" font-size="13" x="1056" y="652">thesis_id</text><text fill="#4d6287" font-family="Arial" font-size="13" x="1056" y="670">expert</text><text fill="#4d6287" font-family="Arial" font-size="13" x="1056" y="688">score</text><rect fill="#fff7e8" height="96" rx="18" ry="18" stroke="#183a75" stroke-width="2" width="240" x="330" y="380" /><text fill="#12284d" font-family="Arial" font-size="18" font-weight="bold" x="346" y="406">Outbound Study</text><text fill="#4d6287" font-family="Arial" font-size="13" x="346" y="432">student_id</text><text fill="#4d6287" font-family="Arial" font-size="13" x="346" y="450">approval_status</text><rect fill="#fff7e8" height="96" rx="18" ry="18" stroke="#183a75" stroke-width="2" width="240" x="330" y="540" /><text fill="#12284d" font-family="Arial" font-size="18" font-weight="bold" x="346" y="566">Achievement</text><text fill="#4d6287" font-family="Arial" font-size="13" x="346" y="592">student_id</text><text fill="#4d6287" font-family="Arial" font-size="13" x="346" y="610">type</text><text fill="#4d6287" font-family="Arial" font-size="13" x="346" y="628">title</text><rect fill="#f4f0ff" height="96" rx="18" ry="18" stroke="#183a75" stroke-width="2" width="320" x="80" y="640" /><text fill="#12284d" font-family="Arial" font-size="18" font-weight="bold" x="96" y="666">Operation Log</text><text fill="#4d6287" font-family="Arial" font-size="13" x="96" y="692">module</text><text fill="#4d6287" font-family="Arial" font-size="13" x="96" y="710">entity</text><text fill="#4d6287" font-family="Arial" font-size="13" x="96" y="728">action</text><rect fill="#f4f0ff" height="96" rx="18" ry="18" stroke="#183a75" stroke-width="2" width="220" x="80" y="140" /><text fill="#12284d" font-family="Arial" font-size="18" font-weight="bold" x="96" y="166">User</text><text fill="#4d6287" font-family="Arial" font-size="13" x="96" y="192">username</text><text fill="#4d6287" font-family="Arial" font-size="13" x="96" y="210">password_hash</text><rect fill="#f4f0ff" height="96" rx="18" ry="18" stroke="#183a75" stroke-width="2" width="220" x="80" y="300" /><text fill="#12284d" font-family="Arial" font-size="18" font-weight="bold" x="96" y="326">Role</text><text fill="#4d6287" font-family="Arial" font-size="13" x="96" y="352">role_code</text><text fill="#4d6287" font-family="Arial" font-size="13" x="96" y="370">role_name</text><rect fill="#f4f0ff" height="96" rx="18" ry="18" stroke="#183a75" stroke-width="2" width="220" x="80" y="460" /><text fill="#12284d" font-family="Arial" font-size="18" font-weight="bold" x="96" y="486">Permission</text><text fill="#4d6287" font-family="Arial" font-size="13" x="96" y="512">permission_code</text><text fill="#4d6287" font-family="Arial" font-size="13" x="96" y="530">module_name</text><rect fill="#fff4ea" height="96" rx="18" ry="18" stroke="#183a75" stroke-width="2" width="320" x="510" y="720" /><text fill="#12284d" font-family="Arial" font-size="18" font-weight="bold" x="526" y="746">Recruitment Plan</text><text fill="#4d6287" font-family="Arial" font-size="13" x="526" y="772">plan_code</text><text fill="#4d6287" font-family="Arial" font-size="13" x="526" y="790">term</text><text fill="#4d6287" font-family="Arial" font-size="13" x="526" y="808">status</text><rect fill="#fff4ea" height="96" rx="18" ry="18" stroke="#183a75" stroke-width="2" width="320" x="900" y="720" /><text fill="#12284d" font-family="Arial" font-size="18" font-weight="bold" x="916" y="746">Application</text><text fill="#4d6287" font-family="Arial" font-size="13" x="916" y="772">candidate_no</text><text fill="#4d6287" font-family="Arial" font-size="13" x="916" y="790">application_status</text><rect fill="#fff4ea" height="96" rx="18" ry="18" stroke="#183a75" stroke-width="2" width="250" x="1290" y="720" /><text fill="#12284d" font-family="Arial" font-size="18" font-weight="bold" x="1306" y="746">Admission Decision</text><text fill="#4d6287" font-family="Arial" font-size="13" x="1306" y="772">decision_status</text><text fill="#4d6287" font-family="Arial" font-size="13" x="1306" y="790">final_score</text><line stroke="#40649a" stroke-width="3" x1="570" x2="680" y1="228" y2="228" /><polygon fill="#40649a" points="680,228 666,220 666,236" /><text fill="#40649a" font-family="Arial" font-size="12" text-anchor="middle" x="625.0" y="218.0">guides</text><line stroke="#40649a" stroke-width="3" x1="980" x2="1040" y1="228" y2="168" /><polygon fill="#40649a" points="1040,168 1026,160 1026,176" /><text fill="#40649a" font-family="Arial" font-size="12" text-anchor="middle" x="1010.0" y="188.0">owns</text><line stroke="#40649a" stroke-width="3" x1="980" x2="1040" y1="228" y2="328" /><polygon fill="#40649a" points="1040,328 1026,320 1026,336" /><text fill="#40649a" font-family="Arial" font-size="12" text-anchor="middle" x="1010.0" y="268.0">submits</text><line stroke="#40649a" stroke-width="3" x1="980" x2="1040" y1="228" y2="488" /><polygon fill="#40649a" points="1040,488 1026,480 1026,496" /><text fill="#40649a" font-family="Arial" font-size="12" text-anchor="middle" x="1010.0" y="348.0">writes</text><line stroke="#40649a" stroke-width="3" x1="1160" x2="1160" y1="536" y2="600" /><polygon fill="#40649a" points="1160,600 1152,586 1168,586" /><text fill="#40649a" font-family="Arial" font-size="12" text-anchor="middle" x="1160.0" y="558.0">reviews</text><line stroke="#40649a" stroke-width="3" x1="570" x2="680" y1="428" y2="228" /><polygon fill="#40649a" points="680,228 666,220 666,236" /><text fill="#40649a" font-family="Arial" font-size="12" text-anchor="middle" x="625.0" y="318.0">applies</text><line stroke="#40649a" stroke-width="3" x1="570" x2="680" y1="588" y2="228" /><polygon fill="#40649a" points="680,228 666,220 666,236" /><text fill="#40649a" font-family="Arial" font-size="12" text-anchor="middle" x="625.0" y="398.0">records</text><line stroke="#40649a" stroke-width="3" x1="400" x2="680" y1="688" y2="260" /><polygon fill="#40649a" points="680,260 666,252 666,268" /><text fill="#40649a" font-family="Arial" font-size="12" text-anchor="middle" x="540.0" y="464.0">audits</text><line stroke="#40649a" stroke-width="3" x1="300" x2="300" y1="188" y2="300" /><polygon fill="#40649a" points="300,300 292,286 308,286" /><text fill="#40649a" font-family="Arial" font-size="12" text-anchor="middle" x="300.0" y="234.0">maps</text><line stroke="#40649a" stroke-width="3" x1="300" x2="300" y1="348" y2="460" /><polygon fill="#40649a" points="300,460 292,446 308,446" /><text fill="#40649a" font-family="Arial" font-size="12" text-anchor="middle" x="300.0" y="394.0">grants</text><line stroke="#40649a" stroke-width="3" x1="830" x2="900" y1="768" y2="768" /><polygon fill="#40649a" points="900,768 886,760 886,776" /><text fill="#40649a" font-family="Arial" font-size="12" text-anchor="middle" x="865.0" y="758.0">accepts</text><line stroke="#40649a" stroke-width="3" x1="1220" x2="1290" y1="768" y2="768" /><polygon fill="#40649a" points="1290,768 1276,760 1276,776" /><text fill="#40649a" font-family="Arial" font-size="12" text-anchor="middle" x="1255.0" y="758.0">decides</text><line stroke="#40649a" stroke-width="3" x1="900" x2="830" y1="768" y2="276" /><polygon fill="#40649a" points="830,276 844,268 844,284" /><text fill="#40649a" font-family="Arial" font-size="12" text-anchor="middle" x="865.0" y="512.0">creates student</text></svg>