<?xml version="1.0" encoding="utf-8" ?>
<svg baseProfile="full" height="940px" version="1.1" viewBox="0,0,1520,940" width="1520px" xmlns="http://www.w3.org/2000/svg" xmlns:ev="http://www.w3.org/2001/xml-events" xmlns:xlink="http://www.w3.org/1999/xlink"><defs /><rect fill="#f7fbff" height="940" width="1520" x="0" y="0" /><text fill="#10284d" font-family="Arial" font-size="30" font-weight="bold" text-anchor="middle" x="700" y="50">DTLMS Functional Module Architecture</text><rect fill="#fff3df" height="84" rx="18" ry="18" stroke="#183a75" stroke-width="2" width="300" x="550" y="90" /><text fill="#12284d" font-family="Arial" font-size="18" font-weight="bold" x="566" y="116">Portal Layer</text><text fill="#4d6287" font-family="Arial" font-size="13" x="566" y="142">Vue3 + Element Plus</text><text fill="#4d6287" font-family="Arial" font-size="13" x="566" y="160">Dashboard / Workbench / Search</text><rect fill="#e7f0ff" height="84" rx="18" ry="18" stroke="#183a75" stroke-width="2" width="300" x="550" y="220" /><text fill="#12284d" font-family="Arial" font-size="18" font-weight="bold" x="566" y="246">Gateway Layer</text><text fill="#4d6287" font-family="Arial" font-size="13" x="566" y="272">Auth / Routing / Audit / API Docs</text><rect fill="#eef7ff" height="110" rx="18" ry="18" stroke="#183a75" stroke-width="2" width="270" x="110" y="370" /><text fill="#12284d" font-family="Arial" font-size="18" font-weight="bold" x="126" y="396">Master Data</text><text fill="#4d6287" font-family="Arial" font-size="13" x="126" y="422">Student / Advisor / Status</text><rect fill="#eef7ff" height="110" rx="18" ry="18" stroke="#183a75" stroke-width="2" width="270" x="410" y="370" /><text fill="#12284d" font-family="Arial" font-size="18" font-weight="bold" x="426" y="396">Recruitment</text><text fill="#4d6287" font-family="Arial" font-size="13" x="426" y="422">Apply / Review / Interview / Admit</text><rect fill="#eef7ff" height="110" rx="18" ry="18" stroke="#183a75" stroke-width="2" width="270" x="710" y="370" /><text fill="#12284d" font-family="Arial" font-size="18" font-weight="bold" x="726" y="396">Training</text><text fill="#4d6287" font-family="Arial" font-size="13" x="726" y="422">Plan / Report / Visit / Achievement</text><rect fill="#eef7ff" height="110" rx="18" ry="18" stroke="#183a75" stroke-width="2" width="270" x="1010" y="370" /><text fill="#12284d" font-family="Arial" font-size="18" font-weight="bold" x="1026" y="396">Degree</text><text fill="#4d6287" font-family="Arial" font-size="13" x="1026" y="422">Thesis / Blind Review / Defense</text><rect fill="#ebfff5" height="110" rx="18" ry="18" stroke="#183a75" stroke-width="2" width="360" x="180" y="570" /><text fill="#12284d" font-family="Arial" font-size="18" font-weight="bold" x="196" y="596">Governance Center</text><text fill="#4d6287" font-family="Arial" font-size="13" x="196" y="622">RBAC / JWT / Login Log</text><text fill="#4d6287" font-family="Arial" font-size="13" x="196" y="640">Operation Log / Sync Log</text><rect fill="#fff7eb" height="110" rx="18" ry="18" stroke="#183a75" stroke-width="2" width="360" x="610" y="570" /><text fill="#12284d" font-family="Arial" font-size="18" font-weight="bold" x="626" y="596">Integration Center</text><text fill="#4d6287" font-family="Arial" font-size="13" x="626" y="622">Recruitment / OA / Feishu</text><text fill="#4d6287" font-family="Arial" font-size="13" x="626" y="640">Research / HR / Finance</text><rect fill="#f1edff" height="110" rx="18" ry="18" stroke="#183a75" stroke-width="2" width="220" x="1040" y="570" /><text fill="#12284d" font-family="Arial" font-size="18" font-weight="bold" x="1056" y="596">Analytics Cockpit</text><text fill="#4d6287" font-family="Arial" font-size="13" x="1056" y="622">KPI / Alerts / Drill-down</text><rect fill="#edf7ff" height="84" rx="18" ry="18" stroke="#183a75" stroke-width="2" width="580" x="410" y="730" /><text fill="#12284d" font-family="Arial" font-size="18" font-weight="bold" x="426" y="756">Data Layer</text><text fill="#4d6287" font-family="Arial" font-size="13" x="426" y="782">PostgreSQL + Redis Sentinel + MinIO</text><line stroke="#40649a" stroke-width="3" x1="700" x2="700" y1="174" y2="220" /><polygon fill="#40649a" points="700,220 692,206 708,206" /><line stroke="#40649a" stroke-width="3" x1="700" x2="245" y1="304" y2="370" /><polygon fill="#40649a" points="245,370 259,362 259,378" /><line stroke="#40649a" stroke-width="3" x1="700" x2="545" y1="304" y2="370" /><polygon fill="#40649a" points="545,370 559,362 559,378" /><line stroke="#40649a" stroke-width="3" x1="700" x2="845" y1="304" y2="370" /><polygon fill="#40649a" points="845,370 831,362 831,378" /><line stroke="#40649a" stroke-width="3" x1="700" x2="1145" y1="304" y2="370" /><polygon fill="#40649a" points="1145,370 1131,362 1131,378" /><line stroke="#40649a" stroke-width="3" x1="320" x2="360" y1="480" y2="570" /><polygon fill="#40649a" points="360,570 346,562 346,578" /><line stroke="#40649a" stroke-width="3" x1="845" x2="790" y1="480" y2="570" /><polygon fill="#40649a" points="790,570 804,562 804,578" /><line stroke="#40649a" stroke-width="3" x1="1145" x2="1150" y1="480" y2="570" /><polygon fill="#40649a" points="1150,570 1136,562 1136,578" /><line stroke="#40649a" stroke-width="3" x1="360" x2="540" y1="680" y2="730" /><polygon fill="#40649a" points="540,730 526,722 526,738" /><line stroke="#40649a" stroke-width="3" x1="790" x2="700" y1="680" y2="730" /><polygon fill="#40649a" points="700,730 714,722 714,738" /><line stroke="#40649a" stroke-width="3" x1="1150" x2="860" y1="680" y2="730" /><polygon fill="#40649a" points="860,730 874,722 874,738" /></svg>