<?xml version="1.0" encoding="utf-8" ?>
<svg baseProfile="full" height="980px" version="1.1" viewBox="0,0,1780,980" width="1780px" xmlns="http://www.w3.org/2000/svg" xmlns:ev="http://www.w3.org/2001/xml-events" xmlns:xlink="http://www.w3.org/1999/xlink"><defs /><rect fill="#fbfdff" height="980" width="1780" x="0" y="0" /><text fill="#10284d" font-family="Arial" font-size="30" font-weight="bold" text-anchor="middle" x="810" y="44">Network Topology</text><rect fill="#eef5ff" height="110" rx="18" ry="18" stroke="#183a75" stroke-width="2" width="240" x="80" y="200" /><text fill="#12284d" font-family="Arial" font-size="18" font-weight="bold" x="96" y="226">Users</text><text fill="#4d6287" font-family="Arial" font-size="13" x="96" y="252">Student / Advisor</text><text fill="#4d6287" font-family="Arial" font-size="13" x="96" y="270">Admin / Reviewer</text><rect fill="#fff7e8" height="110" rx="18" ry="18" stroke="#183a75" stroke-width="2" width="220" x="380" y="200" /><text fill="#12284d" font-family="Arial" font-size="18" font-weight="bold" x="396" y="226">WAF + Nginx</text><text fill="#4d6287" font-family="Arial" font-size="13" x="396" y="252">HTTPS / SSL / routing</text><rect fill="#eefcf2" height="110" rx="18" ry="18" stroke="#183a75" stroke-width="2" width="260" x="680" y="140" /><text fill="#12284d" font-family="Arial" font-size="18" font-weight="bold" x="696" y="166">Frontend</text><text fill="#4d6287" font-family="Arial" font-size="13" x="696" y="192">Vue3 / Element Plus</text><text fill="#4d6287" font-family="Arial" font-size="13" x="696" y="210">Vite deployment</text><rect fill="#eefcf2" height="110" rx="18" ry="18" stroke="#183a75" stroke-width="2" width="260" x="680" y="320" /><text fill="#12284d" font-family="Arial" font-size="18" font-weight="bold" x="696" y="346">Backend API</text><text fill="#4d6287" font-family="Arial" font-size="13" x="696" y="372">FastAPI / JWT / RBAC</text><text fill="#4d6287" font-family="Arial" font-size="13" x="696" y="390">Audit middleware</text><rect fill="#f4f0ff" height="96" rx="18" ry="18" stroke="#183a75" stroke-width="2" width="240" x="1020" y="120" /><text fill="#12284d" font-family="Arial" font-size="18" font-weight="bold" x="1036" y="146">Celery Worker</text><text fill="#4d6287" font-family="Arial" font-size="13" x="1036" y="172">reminders / async jobs</text><rect fill="#fff4ea" height="96" rx="18" ry="18" stroke="#183a75" stroke-width="2" width="240" x="1020" y="270" /><text fill="#12284d" font-family="Arial" font-size="18" font-weight="bold" x="1036" y="296">Redis Sentinel</text><text fill="#4d6287" font-family="Arial" font-size="13" x="1036" y="322">cache / task state</text><text fill="#4d6287" font-family="Arial" font-size="13" x="1036" y="340">CTDTLMS_*</text><rect fill="#fff4ea" height="96" rx="18" ry="18" stroke="#183a75" stroke-width="2" width="240" x="1020" y="430" /><text fill="#12284d" font-family="Arial" font-size="18" font-weight="bold" x="1036" y="456">PostgreSQL</text><text fill="#4d6287" font-family="Arial" font-size="13" x="1036" y="482">master tables / views</text><text fill="#4d6287" font-family="Arial" font-size="13" x="1036" y="500">analytics source</text><rect fill="#eef5ff" height="96" rx="18" ry="18" stroke="#183a75" stroke-width="2" width="220" x="1320" y="120" /><text fill="#12284d" font-family="Arial" font-size="18" font-weight="bold" x="1336" y="146">MinIO</text><text fill="#4d6287" font-family="Arial" font-size="13" x="1336" y="172">thesis / report / materials</text><rect fill="#eef5ff" height="220" rx="18" ry="18" stroke="#183a75" stroke-width="2" width="220" x="1320" y="300" /><text fill="#12284d" font-family="Arial" font-size="18" font-weight="bold" x="1336" y="326">External Systems</text><text fill="#4d6287" font-family="Arial" font-size="13" x="1336" y="352">Recruitment</text><text fill="#4d6287" font-family="Arial" font-size="13" x="1336" y="370">OA</text><text fill="#4d6287" font-family="Arial" font-size="13" x="1336" y="388">Feishu</text><text fill="#4d6287" font-family="Arial" font-size="13" x="1336" y="406">Research</text><text fill="#4d6287" font-family="Arial" font-size="13" x="1336" y="424">HR</text><text fill="#4d6287" font-family="Arial" font-size="13" x="1336" y="442">Finance</text><rect fill="#f7f3ff" height="140" rx="18" ry="18" stroke="#183a75" stroke-width="2" width="700" x="640" y="560" /><text fill="#12284d" font-family="Arial" font-size="18" font-weight="bold" x="656" y="586">Observability</text><text fill="#4d6287" font-family="Arial" font-size="13" x="656" y="612">Prometheus / Grafana / log archive / sync compensation</text><line stroke="#40649a" stroke-width="3" x1="320" x2="380" y1="255" y2="255" /><polygon fill="#40649a" points="380,255 366,247 366,263" /><text fill="#40649a" font-family="Arial" font-size="12" text-anchor="middle" x="350.0" y="245.0">HTTPS</text><line stroke="#40649a" stroke-width="3" x1="600" x2="680" y1="220" y2="195" /><polygon fill="#40649a" points="680,195 666,187 666,203" /><text fill="#40649a" font-family="Arial" font-size="12" text-anchor="middle" x="640.0" y="197.5">static assets</text><line stroke="#40649a" stroke-width="3" x1="600" x2="680" y1="290" y2="360" /><polygon fill="#40649a" points="680,360 666,352 666,368" /><text fill="#40649a" font-family="Arial" font-size="12" text-anchor="middle" x="640.0" y="315.0">API calls</text><line stroke="#40649a" stroke-width="3" x1="940" x2="1020" y1="360" y2="318" /><polygon fill="#40649a" points="1020,318 1006,310 1006,326" /><text fill="#40649a" font-family="Arial" font-size="12" text-anchor="middle" x="980.0" y="329.0">cache / broker</text><line stroke="#40649a" stroke-width="3" x1="940" x2="1020" y1="360" y2="478" /><polygon fill="#40649a" points="1020,478 1006,470 1006,486" /><text fill="#40649a" font-family="Arial" font-size="12" text-anchor="middle" x="980.0" y="409.0">SQL</text><line stroke="#40649a" stroke-width="3" x1="940" x2="1020" y1="360" y2="168" /><polygon fill="#40649a" points="1020,168 1006,160 1006,176" /><text fill="#40649a" font-family="Arial" font-size="12" text-anchor="middle" x="980.0" y="254.0">task dispatch</text><line stroke="#40649a" stroke-width="3" x1="1260" x2="1320" y1="168" y2="168" /><polygon fill="#40649a" points="1320,168 1306,160 1306,176" /><text fill="#40649a" font-family="Arial" font-size="12" text-anchor="middle" x="1290.0" y="158.0">files</text><line stroke="#40649a" stroke-width="3" x1="940" x2="1320" y1="360" y2="410" /><polygon fill="#40649a" points="1320,410 1306,402 1306,418" /><text fill="#40649a" font-family="Arial" font-size="12" text-anchor="middle" x="1130.0" y="375.0">REST / Webhook</text><line stroke="#40649a" stroke-width="3" x1="1140" x2="1140" y1="526" y2="560" /><polygon fill="#40649a" points="1140,560 1132,546 1148,546" /><text fill="#40649a" font-family="Arial" font-size="12" text-anchor="middle" x="1140.0" y="533.0">metrics / logs</text></svg>