<?xml version="1.0" encoding="utf-8" ?>
<svg baseProfile="full" height="1020px" version="1.1" viewBox="0,0,1720,1020" width="1720px" xmlns="http://www.w3.org/2000/svg" xmlns:ev="http://www.w3.org/2001/xml-events" xmlns:xlink="http://www.w3.org/1999/xlink"><defs /><rect fill="#f7fbff" height="1020" width="1720" x="0" y="0" /><text fill="#17304f" font-family="Microsoft YaHei" font-size="28" font-weight="bold" text-anchor="middle" x="860" y="42">经营总览原型图</text><rect fill="#ffffff" height="900" rx="24" ry="24" stroke="#d2deea" stroke-width="2" width="1640" x="40" y="80" /><rect fill="#eef4fb" height="82" rx="18" ry="18" stroke="none" width="1600" x="60" y="120" /><text fill="#17304f" font-family="Microsoft YaHei" font-size="30" font-weight="bold" x="100" y="172">经营总览</text><rect fill="#fff7e8" height="96" rx="18" ry="18" stroke="#183a75" stroke-width="2" width="280" x="100" y="240" /><text fill="#12284d" font-family="Microsoft YaHei" font-size="18" font-weight="bold" x="116" y="266">开放招生计划</text><text fill="#4d6287" font-family="Microsoft YaHei" font-size="13" x="116" y="292">KPI 卡片 / 趋势说明</text><rect fill="#fff7e8" height="96" rx="18" ry="18" stroke="#183a75" stroke-width="2" width="280" x="400" y="240" /><text fill="#12284d" font-family="Microsoft YaHei" font-size="18" font-weight="bold" x="416" y="266">学生总量</text><text fill="#4d6287" font-family="Microsoft YaHei" font-size="13" x="416" y="292">KPI 卡片 / 趋势说明</text><rect fill="#fff7e8" height="96" rx="18" ry="18" stroke="#183a75" stroke-width="2" width="280" x="700" y="240" /><text fill="#12284d" font-family="Microsoft YaHei" font-size="18" font-weight="bold" x="716" y="266">科研报告待审</text><text fill="#4d6287" font-family="Microsoft YaHei" font-size="13" x="716" y="292">KPI 卡片 / 趋势说明</text><rect fill="#fff7e8" height="96" rx="18" ry="18" stroke="#183a75" stroke-width="2" width="280" x="1000" y="240" /><text fill="#12284d" font-family="Microsoft YaHei" font-size="18" font-weight="bold" x="1016" y="266">盲审待办</text><text fill="#4d6287" font-family="Microsoft YaHei" font-size="13" x="1016" y="292">KPI 卡片 / 趋势说明</text><rect fill="#fff7e8" height="96" rx="18" ry="18" stroke="#183a75" stroke-width="2" width="280" x="1300" y="240" /><text fill="#12284d" font-family="Microsoft YaHei" font-size="18" font-weight="bold" x="1316" y="266">流程超期</text><text fill="#4d6287" font-family="Microsoft YaHei" font-size="13" x="1316" y="292">KPI 卡片 / 趋势说明</text><rect fill="#ffffff" height="250" rx="18" ry="18" stroke="#d6dfeb" stroke-width="2" width="980" x="100" y="390" /><text fill="#17304f" font-family="Microsoft YaHei" font-size="24" font-weight="bold" x="130" y="434">生命周期阶段视图</text><rect fill="#eefcf2" height="90" rx="18" ry="18" stroke="#183a75" stroke-width="2" width="130" x="150" y="480" /><text fill="#12284d" font-family="Microsoft YaHei" font-size="18" font-weight="bold" x="166" y="506">招生准备</text><text fill="#4d6287" font-family="Microsoft YaHei" font-size="13" x="166" y="532">阶段摘要</text><line stroke="#40649a" stroke-width="3" x1="280" x2="310" y1="525" y2="525" /><polygon fill="#40649a" points="310,525 296,517 296,533" /><rect fill="#eefcf2" height="90" rx="18" ry="18" stroke="#183a75" stroke-width="2" width="130" x="310" y="480" /><text fill="#12284d" font-family="Microsoft YaHei" font-size="18" font-weight="bold" x="326" y="506">入学录取</text><text fill="#4d6287" font-family="Microsoft YaHei" font-size="13" x="326" y="532">阶段摘要</text><line stroke="#40649a" stroke-width="3" x1="440" x2="470" y1="525" y2="525" /><polygon fill="#40649a" points="470,525 456,517 456,533" /><rect fill="#eefcf2" height="90" rx="18" ry="18" stroke="#183a75" stroke-width="2" width="130" x="470" y="480" /><text fill="#12284d" font-family="Microsoft YaHei" font-size="18" font-weight="bold" x="486" y="506">导师建立</text><text fill="#4d6287" font-family="Microsoft YaHei" font-size="13" x="486" y="532">阶段摘要</text><line stroke="#40649a" stroke-width="3" x1="600" x2="630" y1="525" y2="525" /><polygon fill="#40649a" points="630,525 616,517 616,533" /><rect fill="#eefcf2" height="90" rx="18" ry="18" stroke="#183a75" stroke-width="2" width="130" x="630" y="480" /><text fill="#12284d" font-family="Microsoft YaHei" font-size="18" font-weight="bold" x="646" y="506">培养执行</text><text fill="#4d6287" font-family="Microsoft YaHei" font-size="13" x="646" y="532">阶段摘要</text><line stroke="#40649a" stroke-width="3" x1="760" x2="790" y1="525" y2="525" /><polygon fill="#40649a" points="790,525 776,517 776,533" /><rect fill="#eefcf2" height="90" rx="18" ry="18" stroke="#183a75" stroke-width="2" width="130" x="790" y="480" /><text fill="#12284d" font-family="Microsoft YaHei" font-size="18" font-weight="bold" x="806" y="506">学位收口</text><text fill="#4d6287" font-family="Microsoft YaHei" font-size="13" x="806" y="532">阶段摘要</text><line stroke="#40649a" stroke-width="3" x1="920" x2="950" y1="525" y2="525" /><polygon fill="#40649a" points="950,525 936,517 936,533" /><rect fill="#eefcf2" height="90" rx="18" ry="18" stroke="#183a75" stroke-width="2" width="130" x="950" y="480" /><text fill="#12284d" font-family="Microsoft YaHei" font-size="18" font-weight="bold" x="966" y="506">毕业归档</text><text fill="#4d6287" font-family="Microsoft YaHei" font-size="13" x="966" y="532">阶段摘要</text><rect fill="#ffffff" height="250" rx="18" ry="18" stroke="#d6dfeb" stroke-width="2" width="460" x="1120" y="390" /><text fill="#17304f" font-family="Microsoft YaHei" font-size="24" font-weight="bold" x="1160" y="434">风险预警</text><rect fill="#fff7e8" height="48" rx="12" ry="12" stroke="#eadcc3" stroke-width="1" width="400" x="1150" y="480" /><text fill="#8f6530" font-family="Microsoft YaHei" font-size="16" x="1170" y="511">招生申请超时未审</text><rect fill="#fff7e8" height="48" rx="12" ry="12" stroke="#eadcc3" stroke-width="1" width="400" x="1150" y="540" /><text fill="#8f6530" font-family="Microsoft YaHei" font-size="16" x="1170" y="571">科研报告待审数量偏高</text><rect fill="#fff7e8" height="48" rx="12" ry="12" stroke="#eadcc3" stroke-width="1" width="400" x="1150" y="600" /><text fill="#8f6530" font-family="Microsoft YaHei" font-size="16" x="1170" y="631">盲审意见回收滞后</text><rect fill="#ffffff" height="220" rx="18" ry="18" stroke="#d6dfeb" stroke-width="2" width="1480" x="100" y="690" /><text fill="#17304f" font-family="Microsoft YaHei" font-size="24" font-weight="bold" x="130" y="734">图表区</text><rect fill="#eef6ff" height="90" rx="14" ry="14" stroke="none" width="1350" x="150" y="770" /><text fill="#4f6583" font-family="Microsoft YaHei" font-size="20" x="220" y="826">柱线图：招生计划 / 学生规模 / 培养方案 / 报告待审 / 论文总量 / 流程待办</text></svg>