<?xml version="1.0" encoding="utf-8" ?>
<svg baseProfile="full" height="980px" version="1.1" viewBox="0,0,1680,980" width="1680px" xmlns="http://www.w3.org/2000/svg" xmlns:ev="http://www.w3.org/2001/xml-events" xmlns:xlink="http://www.w3.org/1999/xlink"><defs /><rect fill="#f7fbff" height="980" width="1680" x="0" y="0" /><text fill="#17304f" font-family="Microsoft YaHei" font-size="28" font-weight="bold" text-anchor="middle" x="840" y="42">管理端登录页原型图</text><rect fill="#ffffff" height="860" rx="24" ry="24" stroke="#d2deea" stroke-width="2" width="1600" x="40" y="80" /><rect fill="#103250" height="860" rx="24" ry="24" stroke="none" width="780" x="40" y="80" /><text fill="#ffffff" font-family="Microsoft YaHei" font-size="36" font-weight="bold" x="110" y="180">博士生生命周期管理系统</text><text fill="#dfeeff" font-family="Microsoft YaHei" font-size="28" x="110" y="235">管理端统一登录入口</text><rect fill="#174467" height="130" rx="18" ry="18" stroke="#183a75" stroke-width="2" width="620" x="110" y="330" /><text fill="#12284d" font-family="Microsoft YaHei" font-size="18" font-weight="bold" x="126" y="356">登录用途</text><text fill="#4d6287" font-family="Microsoft YaHei" font-size="13" x="126" y="382">统一承载后台角色登录与登录失败反馈</text><rect fill="#205684" height="150" rx="18" ry="18" stroke="#183a75" stroke-width="2" width="620" x="110" y="500" /><text fill="#12284d" font-family="Microsoft YaHei" font-size="18" font-weight="bold" x="126" y="526">操作路径</text><text fill="#4d6287" font-family="Microsoft YaHei" font-size="13" x="126" y="552">输入用户名和密码</text><text fill="#4d6287" font-family="Microsoft YaHei" font-size="13" x="126" y="570">提交认证</text><text fill="#4d6287" font-family="Microsoft YaHei" font-size="13" x="126" y="588">失败时使用对话框提示</text><text fill="#4d6287" font-family="Microsoft YaHei" font-size="13" x="126" y="606">成功后跳回原目标页面</text><rect fill="#ffffff" height="520" rx="26" ry="26" stroke="#d6dfeb" stroke-width="2" width="470" x="940" y="220" /><text fill="#17304f" font-family="Microsoft YaHei" font-size="30" font-weight="bold" x="1070" y="290">系统登录</text><rect fill="#f8fafc" height="56" rx="14" ry="14" stroke="#d6dfeb" stroke-width="1" width="350" x="1000" y="370" /><text fill="#7a8798" font-family="Microsoft YaHei" font-size="18" x="1025" y="405">用户名</text><rect fill="#f8fafc" height="56" rx="14" ry="14" stroke="#d6dfeb" stroke-width="1" width="350" x="1000" y="466" /><text fill="#7a8798" font-family="Microsoft YaHei" font-size="18" x="1025" y="501">密码</text><rect fill="#17304f" height="60" rx="16" ry="16" stroke="none" width="350" x="1000" y="580" /><text fill="#ffffff" font-family="Microsoft YaHei" font-size="22" font-weight="bold" x="1112" y="618">登录系统</text><rect fill="#fff7e8" height="44" rx="12" ry="12" stroke="#eadcc3" stroke-width="1" width="350" x="1000" y="664" /><text fill="#9a6a28" font-family="Microsoft YaHei" font-size="16" x="1068" y="692">登录失败通过对话框提示</text></svg>