<?xml version="1.0" encoding="utf-8" ?>
<svg baseProfile="full" height="1040px" version="1.1" viewBox="0,0,1760,1040" width="1760px" xmlns="http://www.w3.org/2000/svg" xmlns:ev="http://www.w3.org/2001/xml-events" xmlns:xlink="http://www.w3.org/1999/xlink"><defs /><rect fill="#f7fbff" height="1040" width="1760" x="0" y="0" /><text fill="#17304f" font-family="Microsoft YaHei" font-size="28" font-weight="bold" text-anchor="middle" x="880" y="42">在线申请 V2 主界面原型图</text><rect fill="#ffffff" height="900" rx="24" ry="24" stroke="#d2deea" stroke-width="2" width="1680" x="40" y="80" /><rect fill="#edf4ff" height="78" rx="24" ry="24" stroke="none" width="1680" x="40" y="80" /><text fill="#17304f" font-family="Microsoft YaHei" font-size="28" font-weight="bold" x="90" y="128">上海人工智能实验室 博士研究生在线申请</text><text fill="#4f6583" font-family="Microsoft YaHei" font-size="18" x="1080" y="128">首页</text><text fill="#4f6583" font-family="Microsoft YaHei" font-size="18" x="1200" y="128">招生信息</text><text fill="#4f6583" font-family="Microsoft YaHei" font-size="18" x="1320" y="128">在线申请</text><text fill="#4f6583" font-family="Microsoft YaHei" font-size="18" x="1440" y="128">申请进度</text><rect fill="#12304f" height="700" rx="20" ry="20" stroke="none" width="280" x="90" y="200" /><rect fill="#1f4d7a" height="60" rx="14" ry="14" stroke="#2f5c86" stroke-width="1" width="236" x="112" y="250" /><text fill="#ffffff" font-family="Microsoft YaHei" font-size="18" font-weight="bold" x="130" y="288">1</text><text fill="#ffffff" font-family="Microsoft YaHei" font-size="18" x="168" y="288">基本信息</text><rect fill="#183956" height="60" rx="14" ry="14" stroke="#2f5c86" stroke-width="1" width="236" x="112" y="324" /><text fill="#ffffff" font-family="Microsoft YaHei" font-size="18" font-weight="bold" x="130" y="362">2</text><text fill="#ffffff" font-family="Microsoft YaHei" font-size="18" x="168" y="362">报名信息</text><rect fill="#183956" height="60" rx="14" ry="14" stroke="#2f5c86" stroke-width="1" width="236" x="112" y="398" /><text fill="#ffffff" font-family="Microsoft YaHei" font-size="18" font-weight="bold" x="130" y="436">3</text><text fill="#ffffff" font-family="Microsoft YaHei" font-size="18" x="168" y="436">教育经历</text><rect fill="#183956" height="60" rx="14" ry="14" stroke="#2f5c86" stroke-width="1" width="236" x="112" y="472" /><text fill="#ffffff" font-family="Microsoft YaHei" font-size="18" font-weight="bold" x="130" y="510">4</text><text fill="#ffffff" font-family="Microsoft YaHei" font-size="18" x="168" y="510">实践经历</text><rect fill="#183956" height="60" rx="14" ry="14" stroke="#2f5c86" stroke-width="1" width="236" x="112" y="546" /><text fill="#ffffff" font-family="Microsoft YaHei" font-size="18" font-weight="bold" x="130" y="584">5</text><text fill="#ffffff" font-family="Microsoft YaHei" font-size="18" x="168" y="584">英语能力</text><rect fill="#183956" height="60" rx="14" ry="14" stroke="#2f5c86" stroke-width="1" width="236" x="112" y="620" /><text fill="#ffffff" font-family="Microsoft YaHei" font-size="18" font-weight="bold" x="130" y="658">6</text><text fill="#ffffff" font-family="Microsoft YaHei" font-size="18" x="168" y="658">家庭情况</text><rect fill="#183956" height="60" rx="14" ry="14" stroke="#2f5c86" stroke-width="1" width="236" x="112" y="694" /><text fill="#ffffff" font-family="Microsoft YaHei" font-size="18" font-weight="bold" x="130" y="732">7</text><text fill="#ffffff" font-family="Microsoft YaHei" font-size="18" x="168" y="732">获奖经历</text><rect fill="#183956" height="60" rx="14" ry="14" stroke="#2f5c86" stroke-width="1" width="236" x="112" y="768" /><text fill="#ffffff" font-family="Microsoft YaHei" font-size="18" font-weight="bold" x="130" y="806">8</text><text fill="#ffffff" font-family="Microsoft YaHei" font-size="18" x="168" y="806">个人陈述</text><rect fill="#fbfdff" height="700" rx="20" ry="20" stroke="#d6dfeb" stroke-width="2" width="860" x="410" y="200" /><text fill="#17304f" font-family="Microsoft YaHei" font-size="28" font-weight="bold" x="450" y="260">博士研究生申请表 V2</text><rect fill="#ffffff" height="88" rx="16" ry="16" stroke="#d6dfeb" stroke-width="1" width="780" x="450" y="340" /><text fill="#5d6f85" font-family="Microsoft YaHei" font-size="18" x="480" y="390">当前章节说明</text><rect fill="#ffffff" height="88" rx="16" ry="16" stroke="#d6dfeb" stroke-width="1" width="780" x="450" y="448" /><text fill="#5d6f85" font-family="Microsoft YaHei" font-size="18" x="480" y="498">字段组 1</text><rect fill="#ffffff" height="88" rx="16" ry="16" stroke="#d6dfeb" stroke-width="1" width="780" x="450" y="556" /><text fill="#5d6f85" font-family="Microsoft YaHei" font-size="18" x="480" y="606">字段组 2</text><rect fill="#ffffff" height="88" rx="16" ry="16" stroke="#d6dfeb" stroke-width="1" width="780" x="450" y="664" /><text fill="#5d6f85" font-family="Microsoft YaHei" font-size="18" x="480" y="714">字段组 3</text><rect fill="#ffffff" height="88" rx="16" ry="16" stroke="#d6dfeb" stroke-width="1" width="780" x="450" y="772" /><text fill="#5d6f85" font-family="Microsoft YaHei" font-size="18" x="480" y="822">附件或备注区域</text><rect fill="#f7f3ff" height="700" rx="20" ry="20" stroke="#ddd3ef" stroke-width="2" width="320" x="1310" y="200" /><text fill="#4f4a78" font-family="Microsoft YaHei" font-size="24" font-weight="bold" x="1360" y="250">状态与操作</text><rect fill="#ffffff" height="54" rx="12" ry="12" stroke="#d9d1eb" stroke-width="1" width="260" x="1340" y="320" /><text fill="#4f4a78" font-family="Microsoft YaHei" font-size="16" x="1360" y="354">沿左侧章节逐步填写</text><rect fill="#ffffff" height="54" rx="12" ry="12" stroke="#d9d1eb" stroke-width="1" width="260" x="1340" y="390" /><text fill="#4f4a78" font-family="Microsoft YaHei" font-size="16" x="1360" y="424">当前章节内完成字段与附件</text><rect fill="#ffffff" height="54" rx="12" ry="12" stroke="#d9d1eb" stroke-width="1" width="260" x="1340" y="460" /><text fill="#4f4a78" font-family="Microsoft YaHei" font-size="16" x="1360" y="494">随时保存草稿</text><rect fill="#ffffff" height="54" rx="12" ry="12" stroke="#d9d1eb" stroke-width="1" width="260" x="1340" y="530" /><text fill="#4f4a78" font-family="Microsoft YaHei" font-size="16" x="1360" y="564">最终提交并确认声明</text><rect fill="#eff3f8" height="52" rx="14" ry="14" stroke="none" width="110" x="1340" y="810" /><text fill="#51687f" font-family="Microsoft YaHei" font-size="18" x="1365" y="843">上一步</text><rect fill="#17304f" height="52" rx="14" ry="14" stroke="none" width="110" x="1470" y="810" /><text fill="#ffffff" font-family="Microsoft YaHei" font-size="18" font-weight="bold" x="1498" y="843">下一步</text></svg>