<?xml version="1.0" encoding="utf-8" ?>
<svg baseProfile="full" height="1040px" version="1.1" viewBox="0,0,1680,1040" width="1680px" xmlns="http://www.w3.org/2000/svg" xmlns:ev="http://www.w3.org/2001/xml-events" xmlns:xlink="http://www.w3.org/1999/xlink"><defs /><rect fill="#f7fbff" height="1040" width="1680" x="0" y="0" /><text fill="#17304f" font-family="Microsoft YaHei" font-size="28" font-weight="bold" text-anchor="middle" x="840" y="42">在线申请 V1 原型图</text><rect fill="#fcfdff" height="900" rx="24" ry="24" stroke="#d7e3ef" stroke-width="2" width="1600" x="40" y="80" /><rect fill="#eaf2fb" height="76" rx="24" ry="24" stroke="none" width="1600" x="40" y="80" /><text fill="#1a3d60" font-family="Microsoft YaHei" font-size="30" font-weight="bold" x="90" y="128">博士生在线申请</text><text fill="#557392" font-family="Microsoft YaHei" font-size="18" x="1360" y="128">学生自助填写界面</text><circle cx="120" cy="230" fill="#1c5c91" r="24" /><text fill="#ffffff" font-family="Microsoft YaHei" font-size="18" font-weight="bold" x="114" y="238">1</text><text fill="#35516d" font-family="Microsoft YaHei" font-size="15" x="86" y="278">个人信息</text><line stroke="#40649a" stroke-width="3" x1="150" x2="290" y1="230" y2="230" /><polygon fill="#40649a" points="290,230 276,222 276,238" /><circle cx="370" cy="230" fill="#1c5c91" r="24" /><text fill="#ffffff" font-family="Microsoft YaHei" font-size="18" font-weight="bold" x="364" y="238">2</text><text fill="#35516d" font-family="Microsoft YaHei" font-size="15" x="336" y="278">教育经历</text><line stroke="#40649a" stroke-width="3" x1="400" x2="540" y1="230" y2="230" /><polygon fill="#40649a" points="540,230 526,222 526,238" /><circle cx="620" cy="230" fill="#1c5c91" r="24" /><text fill="#ffffff" font-family="Microsoft YaHei" font-size="18" font-weight="bold" x="614" y="238">3</text><text fill="#35516d" font-family="Microsoft YaHei" font-size="15" x="586" y="278">实践经历</text><line stroke="#40649a" stroke-width="3" x1="650" x2="790" y1="230" y2="230" /><polygon fill="#40649a" points="790,230 776,222 776,238" /><circle cx="870" cy="230" fill="#dfe8f3" r="24" /><text fill="#5c7088" font-family="Microsoft YaHei" font-size="18" font-weight="bold" x="864" y="238">4</text><text fill="#35516d" font-family="Microsoft YaHei" font-size="15" x="836" y="278">成果与陈述</text><line stroke="#40649a" stroke-width="3" x1="900" x2="1040" y1="230" y2="230" /><polygon fill="#40649a" points="1040,230 1026,222 1026,238" /><circle cx="1120" cy="230" fill="#dfe8f3" r="24" /><text fill="#5c7088" font-family="Microsoft YaHei" font-size="18" font-weight="bold" x="1114" y="238">5</text><text fill="#35516d" font-family="Microsoft YaHei" font-size="15" x="1086" y="278">确认提交</text><rect fill="#eef6ff" height="120" rx="18" ry="18" stroke="#183a75" stroke-width="2" width="1080" x="90" y="330" /><text fill="#12284d" font-family="Microsoft YaHei" font-size="18" font-weight="bold" x="106" y="356">填写进度</text><text fill="#4d6287" font-family="Microsoft YaHei" font-size="13" x="106" y="382">显示当前完成比例、草稿状态和系统自动保存提示</text><rect fill="#ffffff" height="96" rx="18" ry="18" stroke="#183a75" stroke-width="2" width="1080" x="90" y="490" /><text fill="#12284d" font-family="Microsoft YaHei" font-size="18" font-weight="bold" x="106" y="516">个人信息</text><text fill="#4d6287" font-family="Microsoft YaHei" font-size="13" x="106" y="542">按分区组织表单，支持进入、返回、保存草稿和继续填写</text><rect fill="#ffffff" height="96" rx="18" ry="18" stroke="#183a75" stroke-width="2" width="1080" x="90" y="606" /><text fill="#12284d" font-family="Microsoft YaHei" font-size="18" font-weight="bold" x="106" y="632">教育经历</text><text fill="#4d6287" font-family="Microsoft YaHei" font-size="13" x="106" y="658">按分区组织表单，支持进入、返回、保存草稿和继续填写</text><rect fill="#ffffff" height="96" rx="18" ry="18" stroke="#183a75" stroke-width="2" width="1080" x="90" y="722" /><text fill="#12284d" font-family="Microsoft YaHei" font-size="18" font-weight="bold" x="106" y="748">英语能力</text><text fill="#4d6287" font-family="Microsoft YaHei" font-size="13" x="106" y="774">按分区组织表单，支持进入、返回、保存草稿和继续填写</text><rect fill="#ffffff" height="96" rx="18" ry="18" stroke="#183a75" stroke-width="2" width="1080" x="90" y="838" /><text fill="#12284d" font-family="Microsoft YaHei" font-size="18" font-weight="bold" x="106" y="864">成果与个人陈述</text><text fill="#4d6287" font-family="Microsoft YaHei" font-size="13" x="106" y="890">按分区组织表单，支持进入、返回、保存草稿和继续填写</text><rect fill="#f7f3ff" height="520" rx="18" ry="18" stroke="#183a75" stroke-width="2" width="360" x="1210" y="330" /><text fill="#12284d" font-family="Microsoft YaHei" font-size="18" font-weight="bold" x="1226" y="356">操作说明</text><text fill="#4d6287" font-family="Microsoft YaHei" font-size="13" x="1226" y="382">右侧固定区展示完整性校验、附件上传和提交前检查。</text><rect fill="#ffffff" height="50" rx="12" ry="12" stroke="#d9d1eb" stroke-width="1" width="300" x="1240" y="410" /><text fill="#4f4a78" font-family="Microsoft YaHei" font-size="16" x="1260" y="442">按分段导航填写</text><rect fill="#ffffff" height="50" rx="12" ry="12" stroke="#d9d1eb" stroke-width="1" width="300" x="1240" y="478" /><text fill="#4f4a78" font-family="Microsoft YaHei" font-size="16" x="1260" y="510">随时保存草稿</text><rect fill="#ffffff" height="50" rx="12" ry="12" stroke="#d9d1eb" stroke-width="1" width="300" x="1240" y="546" /><text fill="#4f4a78" font-family="Microsoft YaHei" font-size="16" x="1260" y="578">上传附件</text><rect fill="#ffffff" height="50" rx="12" ry="12" stroke="#d9d1eb" stroke-width="1" width="300" x="1240" y="614" /><text fill="#4f4a78" font-family="Microsoft YaHei" font-size="16" x="1260" y="646">确认后提交申请</text><rect fill="#eef2f7" height="58" rx="14" ry="14" stroke="none" width="160" x="1210" y="880" /><text fill="#4f647c" font-family="Microsoft YaHei" font-size="20" x="1253" y="916">保存草稿</text><rect fill="#1c5c91" height="58" rx="14" ry="14" stroke="none" width="160" x="1410" y="880" /><text fill="#ffffff" font-family="Microsoft YaHei" font-size="20" font-weight="bold" x="1453" y="916">提交申请</text></svg>