<?xml version="1.0" encoding="utf-8" ?>
<svg baseProfile="full" height="980px" version="1.1" viewBox="0,0,1680,980" width="1680px" xmlns="http://www.w3.org/2000/svg" xmlns:ev="http://www.w3.org/2001/xml-events" xmlns:xlink="http://www.w3.org/1999/xlink"><defs /><rect fill="#f7fbff" height="980" width="1680" x="0" y="0" /><text fill="#17304f" font-family="Microsoft YaHei" font-size="28" font-weight="bold" text-anchor="middle" x="840" y="42">V2 英语能力章节原型图</text><rect fill="#ffffff" height="850" rx="24" ry="24" stroke="#d2deea" stroke-width="2" width="1600" x="40" y="80" /><rect fill="#12304f" height="740" rx="20" ry="20" stroke="none" width="260" x="60" y="120" /><text fill="#ffffff" font-family="Microsoft YaHei" font-size="24" font-weight="bold" x="120" y="170">章节导航</text><rect fill="#183956" height="46" rx="12" ry="12" stroke="#2f5c86" stroke-width="1" width="204" x="88" y="230" /><text fill="#ffffff" font-family="Microsoft YaHei" font-size="16" x="118" y="259">基本信息</text><rect fill="#183956" height="46" rx="12" ry="12" stroke="#2f5c86" stroke-width="1" width="204" x="88" y="290" /><text fill="#ffffff" font-family="Microsoft YaHei" font-size="16" x="118" y="319">报名信息</text><rect fill="#183956" height="46" rx="12" ry="12" stroke="#2f5c86" stroke-width="1" width="204" x="88" y="350" /><text fill="#ffffff" font-family="Microsoft YaHei" font-size="16" x="118" y="379">教育经历</text><rect fill="#183956" height="46" rx="12" ry="12" stroke="#2f5c86" stroke-width="1" width="204" x="88" y="410" /><text fill="#ffffff" font-family="Microsoft YaHei" font-size="16" x="118" y="439">实践经历</text><rect fill="#183956" height="46" rx="12" ry="12" stroke="#2f5c86" stroke-width="1" width="204" x="88" y="470" /><text fill="#ffffff" font-family="Microsoft YaHei" font-size="16" x="118" y="499">英语能力</text><rect fill="#183956" height="46" rx="12" ry="12" stroke="#2f5c86" stroke-width="1" width="204" x="88" y="530" /><text fill="#ffffff" font-family="Microsoft YaHei" font-size="16" x="118" y="559">家庭情况</text><rect fill="#183956" height="46" rx="12" ry="12" stroke="#2f5c86" stroke-width="1" width="204" x="88" y="590" /><text fill="#ffffff" font-family="Microsoft YaHei" font-size="16" x="118" y="619">获奖经历</text><rect fill="#183956" height="46" rx="12" ry="12" stroke="#2f5c86" stroke-width="1" width="204" x="88" y="650" /><text fill="#ffffff" font-family="Microsoft YaHei" font-size="16" x="118" y="679">个人陈述</text><rect fill="#fbfdff" height="740" rx="20" ry="20" stroke="#d6dfeb" stroke-width="2" width="860" x="360" y="120" /><text fill="#17304f" font-family="Microsoft YaHei" font-size="28" font-weight="bold" x="400" y="175">英语语言能力</text><text fill="#5d6f85" font-family="Microsoft YaHei" font-size="16" x="400" y="212">根据当前章节显示差异化字段和附件区域</text><rect fill="#ffffff" height="72" rx="14" ry="14" stroke="#d6dfeb" stroke-width="1" width="760" x="400" y="270" /><text fill="#5d6f85" font-family="Microsoft YaHei" font-size="18" x="430" y="314">考试名称</text><rect fill="#ffffff" height="72" rx="14" ry="14" stroke="#d6dfeb" stroke-width="1" width="760" x="400" y="362" /><text fill="#5d6f85" font-family="Microsoft YaHei" font-size="18" x="430" y="406">成绩</text><rect fill="#ffffff" height="72" rx="14" ry="14" stroke="#d6dfeb" stroke-width="1" width="760" x="400" y="454" /><text fill="#5d6f85" font-family="Microsoft YaHei" font-size="18" x="430" y="498">考试时间</text><rect fill="#ffffff" height="72" rx="14" ry="14" stroke="#d6dfeb" stroke-width="1" width="760" x="400" y="546" /><text fill="#5d6f85" font-family="Microsoft YaHei" font-size="18" x="430" y="590">证书附件</text><rect fill="#f7f3ff" height="740" rx="20" ry="20" stroke="#ddd3ef" stroke-width="2" width="320" x="1260" y="120" /><text fill="#4f4a78" font-family="Microsoft YaHei" font-size="24" font-weight="bold" x="1320" y="174">操作说明</text><rect fill="#ffffff" height="52" rx="12" ry="12" stroke="#d9d1eb" stroke-width="1" width="260" x="1290" y="250" /><text fill="#4f4a78" font-family="Microsoft YaHei" font-size="16" x="1310" y="283">维护多条考试成绩</text><rect fill="#ffffff" height="52" rx="12" ry="12" stroke="#d9d1eb" stroke-width="1" width="260" x="1290" y="318" /><text fill="#4f4a78" font-family="Microsoft YaHei" font-size="16" x="1310" y="351">上传证书附件</text><rect fill="#ffffff" height="52" rx="12" ry="12" stroke="#d9d1eb" stroke-width="1" width="260" x="1290" y="386" /><text fill="#4f4a78" font-family="Microsoft YaHei" font-size="16" x="1310" y="419">检查成绩格式</text><rect fill="#ffffff" height="52" rx="12" ry="12" stroke="#d9d1eb" stroke-width="1" width="260" x="1290" y="454" /><text fill="#4f4a78" font-family="Microsoft YaHei" font-size="16" x="1310" y="487">保存章节</text><rect fill="#eff3f8" height="50" rx="14" ry="14" stroke="none" width="110" x="1290" y="770" /><text fill="#51687f" font-family="Microsoft YaHei" font-size="18" x="1325" y="802">保存</text><rect fill="#17304f" height="50" rx="14" ry="14" stroke="none" width="130" x="1420" y="770" /><text fill="#ffffff" font-family="Microsoft YaHei" font-size="18" font-weight="bold" x="1450" y="802">下一章节</text></svg>