<?xml version="1.0" encoding="utf-8" ?>
<svg baseProfile="full" height="980px" version="1.1" viewBox="0,0,1780,980" width="1780px" xmlns="http://www.w3.org/2000/svg" xmlns:ev="http://www.w3.org/2001/xml-events" xmlns:xlink="http://www.w3.org/1999/xlink"><defs /><rect fill="#fbfdff" height="980" width="1780" x="0" y="0" /><text fill="#17304f" font-family="Microsoft YaHei" font-size="30" font-weight="bold" text-anchor="middle" x="890" y="46">博士生生命周期审批流程图</text><rect fill="#eaf3ff" height="74" rx="18" ry="18" stroke="#183a75" stroke-width="2" width="320" x="80" y="110" /><text fill="#12284d" font-family="Microsoft YaHei" font-size="18" font-weight="bold" x="96" y="136">招生流程</text><rect fill="#eefcf2" height="88" rx="18" ry="18" stroke="#183a75" stroke-width="2" width="290" x="95" y="230" /><text fill="#12284d" font-family="Microsoft YaHei" font-size="18" font-weight="bold" x="111" y="256">资格审核</text><text fill="#4d6287" font-family="Microsoft YaHei" font-size="13" x="111" y="282">查看详情 / 执行动作 / 记录轨迹</text><line stroke="#40649a" stroke-width="3" x1="240" x2="240" y1="318" y2="370" /><polygon fill="#40649a" points="240,370 232,356 248,356" /><rect fill="#eefcf2" height="88" rx="18" ry="18" stroke="#183a75" stroke-width="2" width="290" x="95" y="380" /><text fill="#12284d" font-family="Microsoft YaHei" font-size="18" font-weight="bold" x="111" y="406">评分推荐</text><text fill="#4d6287" font-family="Microsoft YaHei" font-size="13" x="111" y="432">查看详情 / 执行动作 / 记录轨迹</text><line stroke="#40649a" stroke-width="3" x1="240" x2="240" y1="468" y2="520" /><polygon fill="#40649a" points="240,520 232,506 248,506" /><rect fill="#eefcf2" height="88" rx="18" ry="18" stroke="#183a75" stroke-width="2" width="290" x="95" y="530" /><text fill="#12284d" font-family="Microsoft YaHei" font-size="18" font-weight="bold" x="111" y="556">面试安排</text><text fill="#4d6287" font-family="Microsoft YaHei" font-size="13" x="111" y="582">查看详情 / 执行动作 / 记录轨迹</text><line stroke="#40649a" stroke-width="3" x1="240" x2="240" y1="618" y2="670" /><polygon fill="#40649a" points="240,670 232,656 248,656" /><rect fill="#eefcf2" height="88" rx="18" ry="18" stroke="#183a75" stroke-width="2" width="290" x="95" y="680" /><text fill="#12284d" font-family="Microsoft YaHei" font-size="18" font-weight="bold" x="111" y="706">录取决策</text><text fill="#4d6287" font-family="Microsoft YaHei" font-size="13" x="111" y="732">查看详情 / 执行动作 / 记录轨迹</text><rect fill="#eaf3ff" height="74" rx="18" ry="18" stroke="#183a75" stroke-width="2" width="320" x="500" y="110" /><text fill="#12284d" font-family="Microsoft YaHei" font-size="18" font-weight="bold" x="516" y="136">科研报告流程</text><rect fill="#eefcf2" height="88" rx="18" ry="18" stroke="#183a75" stroke-width="2" width="290" x="515" y="230" /><text fill="#12284d" font-family="Microsoft YaHei" font-size="18" font-weight="bold" x="531" y="256">学生提交</text><text fill="#4d6287" font-family="Microsoft YaHei" font-size="13" x="531" y="282">查看详情 / 执行动作 / 记录轨迹</text><line stroke="#40649a" stroke-width="3" x1="660" x2="660" y1="318" y2="370" /><polygon fill="#40649a" points="660,370 652,356 668,356" /><rect fill="#eefcf2" height="88" rx="18" ry="18" stroke="#183a75" stroke-width="2" width="290" x="515" y="380" /><text fill="#12284d" font-family="Microsoft YaHei" font-size="18" font-weight="bold" x="531" y="406">导师审阅</text><text fill="#4d6287" font-family="Microsoft YaHei" font-size="13" x="531" y="432">查看详情 / 执行动作 / 记录轨迹</text><line stroke="#40649a" stroke-width="3" x1="660" x2="660" y1="468" y2="520" /><polygon fill="#40649a" points="660,520 652,506 668,506" /><rect fill="#eefcf2" height="88" rx="18" ry="18" stroke="#183a75" stroke-width="2" width="290" x="515" y="530" /><text fill="#12284d" font-family="Microsoft YaHei" font-size="18" font-weight="bold" x="531" y="556">通过或退回</text><text fill="#4d6287" font-family="Microsoft YaHei" font-size="13" x="531" y="582">查看详情 / 执行动作 / 记录轨迹</text><line stroke="#40649a" stroke-width="3" x1="660" x2="660" y1="618" y2="670" /><polygon fill="#40649a" points="660,670 652,656 668,656" /><rect fill="#eefcf2" height="88" rx="18" ry="18" stroke="#183a75" stroke-width="2" width="290" x="515" y="680" /><text fill="#12284d" font-family="Microsoft YaHei" font-size="18" font-weight="bold" x="531" y="706">归档</text><text fill="#4d6287" font-family="Microsoft YaHei" font-size="13" x="531" y="732">查看详情 / 执行动作 / 记录轨迹</text><rect fill="#eaf3ff" height="74" rx="18" ry="18" stroke="#183a75" stroke-width="2" width="320" x="920" y="110" /><text fill="#12284d" font-family="Microsoft YaHei" font-size="18" font-weight="bold" x="936" y="136">外出研修流程</text><rect fill="#eefcf2" height="88" rx="18" ry="18" stroke="#183a75" stroke-width="2" width="290" x="935" y="230" /><text fill="#12284d" font-family="Microsoft YaHei" font-size="18" font-weight="bold" x="951" y="256">学生申请</text><text fill="#4d6287" font-family="Microsoft YaHei" font-size="13" x="951" y="282">查看详情 / 执行动作 / 记录轨迹</text><line stroke="#40649a" stroke-width="3" x1="1080" x2="1080" y1="318" y2="370" /><polygon fill="#40649a" points="1080,370 1072,356 1088,356" /><rect fill="#eefcf2" height="88" rx="18" ry="18" stroke="#183a75" stroke-width="2" width="290" x="935" y="380" /><text fill="#12284d" font-family="Microsoft YaHei" font-size="18" font-weight="bold" x="951" y="406">导师审核</text><text fill="#4d6287" font-family="Microsoft YaHei" font-size="13" x="951" y="432">查看详情 / 执行动作 / 记录轨迹</text><line stroke="#40649a" stroke-width="3" x1="1080" x2="1080" y1="468" y2="520" /><polygon fill="#40649a" points="1080,520 1072,506 1088,506" /><rect fill="#eefcf2" height="88" rx="18" ry="18" stroke="#183a75" stroke-width="2" width="290" x="935" y="530" /><text fill="#12284d" font-family="Microsoft YaHei" font-size="18" font-weight="bold" x="951" y="556">管理员备案</text><text fill="#4d6287" font-family="Microsoft YaHei" font-size="13" x="951" y="582">查看详情 / 执行动作 / 记录轨迹</text><line stroke="#40649a" stroke-width="3" x1="1080" x2="1080" y1="618" y2="670" /><polygon fill="#40649a" points="1080,670 1072,656 1088,656" /><rect fill="#eefcf2" height="88" rx="18" ry="18" stroke="#183a75" stroke-width="2" width="290" x="935" y="680" /><text fill="#12284d" font-family="Microsoft YaHei" font-size="18" font-weight="bold" x="951" y="706">归来评估</text><text fill="#4d6287" font-family="Microsoft YaHei" font-size="13" x="951" y="732">查看详情 / 执行动作 / 记录轨迹</text><rect fill="#eaf3ff" height="74" rx="18" ry="18" stroke="#183a75" stroke-width="2" width="320" x="1340" y="110" /><text fill="#12284d" font-family="Microsoft YaHei" font-size="18" font-weight="bold" x="1356" y="136">学位流程</text><rect fill="#eefcf2" height="88" rx="18" ry="18" stroke="#183a75" stroke-width="2" width="290" x="1355" y="230" /><text fill="#12284d" font-family="Microsoft YaHei" font-size="18" font-weight="bold" x="1371" y="256">论文提交</text><text fill="#4d6287" font-family="Microsoft YaHei" font-size="13" x="1371" y="282">查看详情 / 执行动作 / 记录轨迹</text><line stroke="#40649a" stroke-width="3" x1="1500" x2="1500" y1="318" y2="370" /><polygon fill="#40649a" points="1500,370 1492,356 1508,356" /><rect fill="#eefcf2" height="88" rx="18" ry="18" stroke="#183a75" stroke-width="2" width="290" x="1355" y="380" /><text fill="#12284d" font-family="Microsoft YaHei" font-size="18" font-weight="bold" x="1371" y="406">盲审</text><text fill="#4d6287" font-family="Microsoft YaHei" font-size="13" x="1371" y="432">查看详情 / 执行动作 / 记录轨迹</text><line stroke="#40649a" stroke-width="3" x1="1500" x2="1500" y1="468" y2="520" /><polygon fill="#40649a" points="1500,520 1492,506 1508,506" /><rect fill="#eefcf2" height="88" rx="18" ry="18" stroke="#183a75" stroke-width="2" width="290" x="1355" y="530" /><text fill="#12284d" font-family="Microsoft YaHei" font-size="18" font-weight="bold" x="1371" y="556">答辩安排</text><text fill="#4d6287" font-family="Microsoft YaHei" font-size="13" x="1371" y="582">查看详情 / 执行动作 / 记录轨迹</text><line stroke="#40649a" stroke-width="3" x1="1500" x2="1500" y1="618" y2="670" /><polygon fill="#40649a" points="1500,670 1492,656 1508,656" /><rect fill="#eefcf2" height="88" rx="18" ry="18" stroke="#183a75" stroke-width="2" width="290" x="1355" y="680" /><text fill="#12284d" font-family="Microsoft YaHei" font-size="18" font-weight="bold" x="1371" y="706">授位结论</text><text fill="#4d6287" font-family="Microsoft YaHei" font-size="13" x="1371" y="732">查看详情 / 执行动作 / 记录轨迹</text><rect fill="#f4f0ff" height="90" rx="18" ry="18" stroke="#183a75" stroke-width="2" width="520" x="630" y="830" /><text fill="#12284d" font-family="Microsoft YaHei" font-size="18" font-weight="bold" x="646" y="856">流程中心操作方式</text><text fill="#4d6287" font-family="Microsoft YaHei" font-size="13" x="646" y="882">审批人先筛选任务，再查看业务详情，随后执行通过、驳回或转办动作，系统同步记录历史轨迹。</text></svg>