<?xml version="1.0" encoding="utf-8" ?>
<svg baseProfile="full" height="720px" version="1.1" viewBox="0,0,1800,720" width="1800px" xmlns="http://www.w3.org/2000/svg" xmlns:ev="http://www.w3.org/2001/xml-events" xmlns:xlink="http://www.w3.org/1999/xlink"><defs /><rect fill="#fbfdff" height="720" width="1800" x="0" y="0" /><text fill="#17304f" font-family="Microsoft YaHei" font-size="30" font-weight="bold" text-anchor="middle" x="900" y="50">博士生生命周期业务主流程图</text><rect fill="#eef6ff" height="110" rx="18" ry="18" stroke="#183a75" stroke-width="2" width="210" x="70" y="220" /><text fill="#12284d" font-family="Microsoft YaHei" font-size="18" font-weight="bold" x="86" y="246">门户注册</text><text fill="#4d6287" font-family="Microsoft YaHei" font-size="13" x="86" y="272">注册账号</text><text fill="#4d6287" font-family="Microsoft YaHei" font-size="13" x="86" y="290">完成双验证码校验</text><rect fill="#eef6ff" height="110" rx="18" ry="18" stroke="#183a75" stroke-width="2" width="210" x="310" y="220" /><text fill="#12284d" font-family="Microsoft YaHei" font-size="18" font-weight="bold" x="326" y="246">在线申请</text><text fill="#4d6287" font-family="Microsoft YaHei" font-size="13" x="326" y="272">填写资料</text><text fill="#4d6287" font-family="Microsoft YaHei" font-size="13" x="326" y="290">保存草稿并提交</text><rect fill="#eef6ff" height="110" rx="18" ry="18" stroke="#183a75" stroke-width="2" width="210" x="550" y="220" /><text fill="#12284d" font-family="Microsoft YaHei" font-size="18" font-weight="bold" x="566" y="246">招生评审</text><text fill="#4d6287" font-family="Microsoft YaHei" font-size="13" x="566" y="272">资格审核</text><text fill="#4d6287" font-family="Microsoft YaHei" font-size="13" x="566" y="290">评分与面试安排</text><rect fill="#eef6ff" height="110" rx="18" ry="18" stroke="#183a75" stroke-width="2" width="210" x="790" y="220" /><text fill="#12284d" font-family="Microsoft YaHei" font-size="18" font-weight="bold" x="806" y="246">录取建档</text><text fill="#4d6287" font-family="Microsoft YaHei" font-size="13" x="806" y="272">形成录取结果</text><text fill="#4d6287" font-family="Microsoft YaHei" font-size="13" x="806" y="290">建立学生主档</text><rect fill="#eef6ff" height="110" rx="18" ry="18" stroke="#183a75" stroke-width="2" width="210" x="1030" y="220" /><text fill="#12284d" font-family="Microsoft YaHei" font-size="18" font-weight="bold" x="1046" y="246">培养执行</text><text fill="#4d6287" font-family="Microsoft YaHei" font-size="13" x="1046" y="272">培养方案</text><text fill="#4d6287" font-family="Microsoft YaHei" font-size="13" x="1046" y="290">科研报告与研修</text><rect fill="#eef6ff" height="110" rx="18" ry="18" stroke="#183a75" stroke-width="2" width="210" x="1270" y="220" /><text fill="#12284d" font-family="Microsoft YaHei" font-size="18" font-weight="bold" x="1286" y="246">学位申请</text><text fill="#4d6287" font-family="Microsoft YaHei" font-size="13" x="1286" y="272">论文、盲审</text><text fill="#4d6287" font-family="Microsoft YaHei" font-size="13" x="1286" y="290">答辩与授位</text><rect fill="#eef6ff" height="110" rx="18" ry="18" stroke="#183a75" stroke-width="2" width="210" x="1510" y="220" /><text fill="#12284d" font-family="Microsoft YaHei" font-size="18" font-weight="bold" x="1526" y="246">毕业归档</text><text fill="#4d6287" font-family="Microsoft YaHei" font-size="13" x="1526" y="272">离校归档</text><text fill="#4d6287" font-family="Microsoft YaHei" font-size="13" x="1526" y="290">就业跟踪</text><line stroke="#40649a" stroke-width="3" x1="280" x2="310" y1="275" y2="275" /><polygon fill="#40649a" points="310,275 296,267 296,283" /><text fill="#40649a" font-family="Microsoft YaHei" font-size="12" text-anchor="middle" x="295.0" y="265.0">状态推进</text><line stroke="#40649a" stroke-width="3" x1="520" x2="550" y1="275" y2="275" /><polygon fill="#40649a" points="550,275 536,267 536,283" /><text fill="#40649a" font-family="Microsoft YaHei" font-size="12" text-anchor="middle" x="535.0" y="265.0">状态推进</text><line stroke="#40649a" stroke-width="3" x1="760" x2="790" y1="275" y2="275" /><polygon fill="#40649a" points="790,275 776,267 776,283" /><text fill="#40649a" font-family="Microsoft YaHei" font-size="12" text-anchor="middle" x="775.0" y="265.0">状态推进</text><line stroke="#40649a" stroke-width="3" x1="1000" x2="1030" y1="275" y2="275" /><polygon fill="#40649a" points="1030,275 1016,267 1016,283" /><text fill="#40649a" font-family="Microsoft YaHei" font-size="12" text-anchor="middle" x="1015.0" y="265.0">状态推进</text><line stroke="#40649a" stroke-width="3" x1="1240" x2="1270" y1="275" y2="275" /><polygon fill="#40649a" points="1270,275 1256,267 1256,283" /><text fill="#40649a" font-family="Microsoft YaHei" font-size="12" text-anchor="middle" x="1255.0" y="265.0">状态推进</text><line stroke="#40649a" stroke-width="3" x1="1480" x2="1510" y1="275" y2="275" /><polygon fill="#40649a" points="1510,275 1496,267 1496,283" /><text fill="#40649a" font-family="Microsoft YaHei" font-size="12" text-anchor="middle" x="1495.0" y="265.0">状态推进</text><rect fill="#fff5e8" height="100" rx="18" ry="18" stroke="#183a75" stroke-width="2" width="300" x="360" y="420" /><text fill="#12284d" font-family="Microsoft YaHei" font-size="18" font-weight="bold" x="376" y="446">协同支撑</text><text fill="#4d6287" font-family="Microsoft YaHei" font-size="13" x="376" y="472">通知提醒</text><text fill="#4d6287" font-family="Microsoft YaHei" font-size="13" x="376" y="490">附件上传</text><text fill="#4d6287" font-family="Microsoft YaHei" font-size="13" x="376" y="508">操作留痕</text><rect fill="#eefcf2" height="100" rx="18" ry="18" stroke="#183a75" stroke-width="2" width="300" x="760" y="420" /><text fill="#12284d" font-family="Microsoft YaHei" font-size="18" font-weight="bold" x="776" y="446">统一流程中心</text><text fill="#4d6287" font-family="Microsoft YaHei" font-size="13" x="776" y="472">任务详情</text><text fill="#4d6287" font-family="Microsoft YaHei" font-size="13" x="776" y="490">动作执行</text><text fill="#4d6287" font-family="Microsoft YaHei" font-size="13" x="776" y="508">历史轨迹</text><rect fill="#f4f0ff" height="100" rx="18" ry="18" stroke="#183a75" stroke-width="2" width="300" x="1160" y="420" /><text fill="#12284d" font-family="Microsoft YaHei" font-size="18" font-weight="bold" x="1176" y="446">系统治理</text><text fill="#4d6287" font-family="Microsoft YaHei" font-size="13" x="1176" y="472">角色权限</text><text fill="#4d6287" font-family="Microsoft YaHei" font-size="13" x="1176" y="490">字典配置</text><text fill="#4d6287" font-family="Microsoft YaHei" font-size="13" x="1176" y="508">日志审计</text><line stroke="#40649a" stroke-width="3" x1="520" x2="510" y1="330" y2="420" /><polygon fill="#40649a" points="510,420 524,412 524,428" /><text fill="#40649a" font-family="Microsoft YaHei" font-size="12" text-anchor="middle" x="515.0" y="365.0">支撑</text><line stroke="#40649a" stroke-width="3" x1="920" x2="910" y1="330" y2="420" /><polygon fill="#40649a" points="910,420 924,412 924,428" /><text fill="#40649a" font-family="Microsoft YaHei" font-size="12" text-anchor="middle" x="915.0" y="365.0">驱动</text><line stroke="#40649a" stroke-width="3" x1="1320" x2="1310" y1="330" y2="420" /><polygon fill="#40649a" points="1310,420 1324,412 1324,428" /><text fill="#40649a" font-family="Microsoft YaHei" font-size="12" text-anchor="middle" x="1315.0" y="365.0">治理</text></svg>