<?xml version="1.0" encoding="utf-8" ?>
<svg baseProfile="full" height="1100px" version="1.1" viewBox="0,0,1800,1100" width="1800px" xmlns="http://www.w3.org/2000/svg" xmlns:ev="http://www.w3.org/2001/xml-events" xmlns:xlink="http://www.w3.org/1999/xlink"><defs /><rect fill="#fbfdff" height="1100" width="1800" x="0" y="0" /><text fill="#17304f" font-family="Microsoft YaHei" font-size="30" font-weight="bold" text-anchor="middle" x="900" y="44">博士生生命周期核心实体ER关系图</text><rect fill="#eef6ff" height="132" rx="18" ry="18" stroke="#183a75" stroke-width="2" width="320" x="760" y="120" /><text fill="#12284d" font-family="Microsoft YaHei" font-size="18" font-weight="bold" x="776" y="146">学生</text><text fill="#4d6287" font-family="Microsoft YaHei" font-size="13" x="776" y="172">PK：student_id</text><text fill="#4d6287" font-family="Microsoft YaHei" font-size="13" x="776" y="190">UK：student_no</text><text fill="#4d6287" font-family="Microsoft YaHei" font-size="13" x="776" y="208">FK：team_id、primary_advisor_id</text><rect fill="#fff7e8" height="120" rx="18" ry="18" stroke="#183a75" stroke-width="2" width="260" x="320" y="130" /><text fill="#12284d" font-family="Microsoft YaHei" font-size="18" font-weight="bold" x="336" y="156">导师</text><text fill="#4d6287" font-family="Microsoft YaHei" font-size="13" x="336" y="182">PK：advisor_id</text><text fill="#4d6287" font-family="Microsoft YaHei" font-size="13" x="336" y="200">UK：advisor_no</text><text fill="#4d6287" font-family="Microsoft YaHei" font-size="13" x="336" y="218">属性：annual_quota</text><rect fill="#eefcf2" height="120" rx="18" ry="18" stroke="#183a75" stroke-width="2" width="260" x="1210" y="130" /><text fill="#12284d" font-family="Microsoft YaHei" font-size="18" font-weight="bold" x="1226" y="156">团队</text><text fill="#4d6287" font-family="Microsoft YaHei" font-size="13" x="1226" y="182">PK：team_id</text><text fill="#4d6287" font-family="Microsoft YaHei" font-size="13" x="1226" y="200">UK：team_code</text><text fill="#4d6287" font-family="Microsoft YaHei" font-size="13" x="1226" y="218">FK：lead_advisor_id</text><rect fill="#fff4ea" height="132" rx="18" ry="18" stroke="#183a75" stroke-width="2" width="300" x="120" y="370" /><text fill="#12284d" font-family="Microsoft YaHei" font-size="18" font-weight="bold" x="136" y="396">门户账号</text><text fill="#4d6287" font-family="Microsoft YaHei" font-size="13" x="136" y="422">PK：portal_user_id</text><text fill="#4d6287" font-family="Microsoft YaHei" font-size="13" x="136" y="440">UK：phone、email、id_number</text><text fill="#4d6287" font-family="Microsoft YaHei" font-size="13" x="136" y="458">属性：account_status</text><rect fill="#fff4ea" height="148" rx="18" ry="18" stroke="#183a75" stroke-width="2" width="300" x="470" y="355" /><text fill="#12284d" font-family="Microsoft YaHei" font-size="18" font-weight="bold" x="486" y="381">招生申请</text><text fill="#4d6287" font-family="Microsoft YaHei" font-size="13" x="486" y="407">PK：application_id</text><text fill="#4d6287" font-family="Microsoft YaHei" font-size="13" x="486" y="425">UK：candidate_no、business_key</text><text fill="#4d6287" font-family="Microsoft YaHei" font-size="13" x="486" y="443">FK：plan_id、portal_user_id</text><rect fill="#eefcf2" height="148" rx="18" ry="18" stroke="#183a75" stroke-width="2" width="300" x="835" y="355" /><text fill="#12284d" font-family="Microsoft YaHei" font-size="18" font-weight="bold" x="851" y="381">培养方案</text><text fill="#4d6287" font-family="Microsoft YaHei" font-size="13" x="851" y="407">PK：training_plan_id</text><text fill="#4d6287" font-family="Microsoft YaHei" font-size="13" x="851" y="425">FK：student_id、advisor_id</text><text fill="#4d6287" font-family="Microsoft YaHei" font-size="13" x="851" y="443">属性：version_no、plan_status</text><rect fill="#eefcf2" height="148" rx="18" ry="18" stroke="#183a75" stroke-width="2" width="300" x="1200" y="355" /><text fill="#12284d" font-family="Microsoft YaHei" font-size="18" font-weight="bold" x="1216" y="381">科研报告</text><text fill="#4d6287" font-family="Microsoft YaHei" font-size="13" x="1216" y="407">PK：report_id</text><text fill="#4d6287" font-family="Microsoft YaHei" font-size="13" x="1216" y="425">UK：business_key</text><text fill="#4d6287" font-family="Microsoft YaHei" font-size="13" x="1216" y="443">FK：student_id</text><rect fill="#eefcf2" height="148" rx="18" ry="18" stroke="#183a75" stroke-width="2" width="300" x="470" y="610" /><text fill="#12284d" font-family="Microsoft YaHei" font-size="18" font-weight="bold" x="486" y="636">外出研修</text><text fill="#4d6287" font-family="Microsoft YaHei" font-size="13" x="486" y="662">PK：outbound_id</text><text fill="#4d6287" font-family="Microsoft YaHei" font-size="13" x="486" y="680">UK：business_key</text><text fill="#4d6287" font-family="Microsoft YaHei" font-size="13" x="486" y="698">FK：student_id</text><rect fill="#eefcf2" height="148" rx="18" ry="18" stroke="#183a75" stroke-width="2" width="300" x="835" y="610" /><text fill="#12284d" font-family="Microsoft YaHei" font-size="18" font-weight="bold" x="851" y="636">论文</text><text fill="#4d6287" font-family="Microsoft YaHei" font-size="13" x="851" y="662">PK：thesis_id</text><text fill="#4d6287" font-family="Microsoft YaHei" font-size="13" x="851" y="680">UK：business_key</text><text fill="#4d6287" font-family="Microsoft YaHei" font-size="13" x="851" y="698">FK：student_id</text><rect fill="#f4f0ff" height="148" rx="18" ry="18" stroke="#183a75" stroke-width="2" width="300" x="1200" y="610" /><text fill="#12284d" font-family="Microsoft YaHei" font-size="18" font-weight="bold" x="1216" y="636">流程任务</text><text fill="#4d6287" font-family="Microsoft YaHei" font-size="13" x="1216" y="662">PK：task_id</text><text fill="#4d6287" font-family="Microsoft YaHei" font-size="13" x="1216" y="680">FK：business_key</text><text fill="#4d6287" font-family="Microsoft YaHei" font-size="13" x="1216" y="698">属性：task_status、assignee</text><rect fill="#f4f0ff" height="120" rx="18" ry="18" stroke="#183a75" stroke-width="2" width="320" x="760" y="860" /><text fill="#12284d" font-family="Microsoft YaHei" font-size="18" font-weight="bold" x="776" y="886">系统治理</text><text fill="#4d6287" font-family="Microsoft YaHei" font-size="13" x="776" y="912">系统用户、角色、字典、日志</text><text fill="#4d6287" font-family="Microsoft YaHei" font-size="13" x="776" y="930">为主业务实体提供权限和规则约束</text><line stroke="#40649a" stroke-width="3" x1="600" x2="760" y1="198" y2="198" /><polygon fill="#40649a" points="760,198 746,190 746,206" /><text fill="#40649a" font-family="Microsoft YaHei" font-size="12" text-anchor="middle" x="680.0" y="188.0">指导</text><line stroke="#40649a" stroke-width="3" x1="1080" x2="1210" y1="188" y2="188" /><polygon fill="#40649a" points="1210,188 1196,180 1196,196" /><text fill="#40649a" font-family="Microsoft YaHei" font-size="12" text-anchor="middle" x="1145.0" y="178.0">归属</text><line stroke="#40649a" stroke-width="3" x1="420" x2="760" y1="430" y2="220" /><polygon fill="#40649a" points="760,220 746,212 746,228" /><text fill="#40649a" font-family="Microsoft YaHei" font-size="12" text-anchor="middle" x="590.0" y="315.0">注册/转化</text><line stroke="#40649a" stroke-width="3" x1="770" x2="810" y1="430" y2="430" /><polygon fill="#40649a" points="810,430 796,422 796,438" /><text fill="#40649a" font-family="Microsoft YaHei" font-size="12" text-anchor="middle" x="790.0" y="420.0">1:1/1:N</text><line stroke="#40649a" stroke-width="3" x1="1080" x2="1200" y1="430" y2="430" /><polygon fill="#40649a" points="1200,430 1186,422 1186,438" /><text fill="#40649a" font-family="Microsoft YaHei" font-size="12" text-anchor="middle" x="1140.0" y="420.0">1:N</text><line stroke="#40649a" stroke-width="3" x1="620" x2="620" y1="252" y2="355" /><polygon fill="#40649a" points="620,355 612,341 628,341" /><text fill="#40649a" font-family="Microsoft YaHei" font-size="12" text-anchor="middle" x="620.0" y="293.5">申请/培养</text><line stroke="#40649a" stroke-width="3" x1="920" x2="920" y1="252" y2="355" /><polygon fill="#40649a" points="920,355 912,341 928,341" /><text fill="#40649a" font-family="Microsoft YaHei" font-size="12" text-anchor="middle" x="920.0" y="293.5">培养方案</text><line stroke="#40649a" stroke-width="3" x1="1040" x2="1330" y1="252" y2="355" /><polygon fill="#40649a" points="1330,355 1316,347 1316,363" /><text fill="#40649a" font-family="Microsoft YaHei" font-size="12" text-anchor="middle" x="1185.0" y="293.5">科研报告</text><line stroke="#40649a" stroke-width="3" x1="620" x2="620" y1="503" y2="610" /><polygon fill="#40649a" points="620,610 612,596 628,596" /><text fill="#40649a" font-family="Microsoft YaHei" font-size="12" text-anchor="middle" x="620.0" y="546.5">外出研修</text><line stroke="#40649a" stroke-width="3" x1="985" x2="985" y1="503" y2="610" /><polygon fill="#40649a" points="985,610 977,596 993,596" /><text fill="#40649a" font-family="Microsoft YaHei" font-size="12" text-anchor="middle" x="985.0" y="546.5">进入学位阶段</text><line stroke="#40649a" stroke-width="3" x1="1135" x2="1200" y1="684" y2="684" /><polygon fill="#40649a" points="1200,684 1186,676 1186,692" /><text fill="#40649a" font-family="Microsoft YaHei" font-size="12" text-anchor="middle" x="1167.5" y="674.0">生成待办</text><line stroke="#40649a" stroke-width="3" x1="960" x2="920" y1="758" y2="860" /><polygon fill="#40649a" points="920,860 934,852 934,868" /><text fill="#40649a" font-family="Microsoft YaHei" font-size="12" text-anchor="middle" x="940.0" y="799.0">受治理规则约束</text><line stroke="#40649a" stroke-width="3" x1="1350" x2="1040" y1="758" y2="860" /><polygon fill="#40649a" points="1040,860 1054,852 1054,868" /><text fill="#40649a" font-family="Microsoft YaHei" font-size="12" text-anchor="middle" x="1195.0" y="799.0">日志与权限约束</text></svg>