<?xml version="1.0" encoding="utf-8" ?>
<svg baseProfile="full" height="1040px" version="1.1" viewBox="0,0,1680,1040" width="1680px" xmlns="http://www.w3.org/2000/svg" xmlns:ev="http://www.w3.org/2001/xml-events" xmlns:xlink="http://www.w3.org/1999/xlink"><defs /><rect fill="#f7fbff" height="1040" width="1680" x="0" y="0" /><text fill="#17304f" font-family="Microsoft YaHei" font-size="28" font-weight="bold" text-anchor="middle" x="840" y="42">团队管理原型图</text><rect fill="#ffffff" height="900" rx="24" ry="24" stroke="#cfdae8" stroke-width="2" width="1600" x="40" y="80" /><rect fill="#eef4fb" height="54" rx="24" ry="24" stroke="none" width="1600" x="40" y="80" /><circle cx="80" cy="107" fill="#d96c5f" r="8" /><circle cx="110" cy="107" fill="#e1b45f" r="8" /><circle cx="140" cy="107" fill="#66b36a" r="8" /><text fill="#4f6583" font-family="Microsoft YaHei" font-size="18" x="1180" y="112">路由：/students?tab=teams</text><rect fill="#12304f" height="780" rx="18" ry="18" stroke="none" width="250" x="70" y="160" /><text fill="#ffffff" font-family="Microsoft YaHei" font-size="24" font-weight="bold" x="120" y="205">管理导航</text><rect fill="#12304f" height="44" rx="12" ry="12" stroke="#2d5d8d" stroke-width="1" width="205" x="92" y="231" /><text fill="#ffffff" font-family="Microsoft YaHei" font-size="18" x="118" y="259">首页</text><rect fill="#12304f" height="44" rx="12" ry="12" stroke="#2d5d8d" stroke-width="1" width="205" x="92" y="293" /><text fill="#ffffff" font-family="Microsoft YaHei" font-size="18" x="118" y="321">招生管理</text><rect fill="#12304f" height="44" rx="12" ry="12" stroke="#2d5d8d" stroke-width="1" width="205" x="92" y="355" /><text fill="#ffffff" font-family="Microsoft YaHei" font-size="18" x="118" y="383">学生管理</text><rect fill="#12304f" height="44" rx="12" ry="12" stroke="#2d5d8d" stroke-width="1" width="205" x="92" y="417" /><text fill="#ffffff" font-family="Microsoft YaHei" font-size="18" x="118" y="445">培养管理</text><rect fill="#12304f" height="44" rx="12" ry="12" stroke="#2d5d8d" stroke-width="1" width="205" x="92" y="479" /><text fill="#ffffff" font-family="Microsoft YaHei" font-size="18" x="118" y="507">学位管理</text><rect fill="#12304f" height="44" rx="12" ry="12" stroke="#2d5d8d" stroke-width="1" width="205" x="92" y="541" /><text fill="#ffffff" font-family="Microsoft YaHei" font-size="18" x="118" y="569">流程中心</text><rect fill="#12304f" height="44" rx="12" ry="12" stroke="#2d5d8d" stroke-width="1" width="205" x="92" y="603" /><text fill="#ffffff" font-family="Microsoft YaHei" font-size="18" x="118" y="631">系统治理</text><rect fill="#eef6ff" height="92" rx="18" ry="18" stroke="none" width="1260" x="350" y="160" /><text fill="#17304f" font-family="Microsoft YaHei" font-size="30" font-weight="bold" x="390" y="214">团队主数据管理</text><text fill="#49627f" font-family="Microsoft YaHei" font-size="18" x="1260" y="214">操作角色：平台管理员</text><rect fill="#fff8eb" height="90" rx="18" ry="18" stroke="#183a75" stroke-width="2" width="250" x="350" y="280" /><text fill="#12284d" font-family="Microsoft YaHei" font-size="18" font-weight="bold" x="366" y="306">团队总数</text><text fill="#4d6287" font-family="Microsoft YaHei" font-size="13" x="366" y="332">支持快速查看当前重点工作</text><rect fill="#fff8eb" height="90" rx="18" ry="18" stroke="#183a75" stroke-width="2" width="250" x="630" y="280" /><text fill="#12284d" font-family="Microsoft YaHei" font-size="18" font-weight="bold" x="646" y="306">负责人导师</text><text fill="#4d6287" font-family="Microsoft YaHei" font-size="13" x="646" y="332">支持快速查看当前重点工作</text><rect fill="#fff8eb" height="90" rx="18" ry="18" stroke="#183a75" stroke-width="2" width="250" x="910" y="280" /><text fill="#12284d" font-family="Microsoft YaHei" font-size="18" font-weight="bold" x="926" y="306">团队学生数</text><text fill="#4d6287" font-family="Microsoft YaHei" font-size="13" x="926" y="332">支持快速查看当前重点工作</text><rect fill="#ffffff" height="84" rx="18" ry="18" stroke="#d6dfeb" stroke-width="2" width="860" x="350" y="402" /><text fill="#17304f" font-family="Microsoft YaHei" font-size="22" font-weight="bold" x="380" y="438">筛选与操作区</text><rect fill="#eef6ff" height="24" rx="10" ry="10" stroke="none" width="180" x="380" y="448" /><text fill="#49627f" font-family="Microsoft YaHei" font-size="14" x="392" y="466">团队状态</text><rect fill="#eef6ff" height="24" rx="10" ry="10" stroke="none" width="180" x="580" y="448" /><text fill="#49627f" font-family="Microsoft YaHei" font-size="14" x="592" y="466">负责人导师</text><rect fill="#eef6ff" height="24" rx="10" ry="10" stroke="none" width="180" x="780" y="448" /><text fill="#49627f" font-family="Microsoft YaHei" font-size="14" x="792" y="466">研究方向</text><rect fill="#ffffff" height="356" rx="18" ry="18" stroke="#d6dfeb" stroke-width="2" width="860" x="350" y="520" /><rect fill="#eef6ff" height="56" stroke="#d6dfeb" stroke-width="1" width="172.0" x="350.0" y="520" /><text fill="#17304f" font-family="Microsoft YaHei" font-size="18" font-weight="bold" x="368.0" y="556">团队</text><rect fill="#eef6ff" height="56" stroke="#d6dfeb" stroke-width="1" width="172.0" x="522.0" y="520" /><text fill="#17304f" font-family="Microsoft YaHei" font-size="18" font-weight="bold" x="540.0" y="556">负责人导师</text><rect fill="#eef6ff" height="56" stroke="#d6dfeb" stroke-width="1" width="172.0" x="694.0" y="520" /><text fill="#17304f" font-family="Microsoft YaHei" font-size="18" font-weight="bold" x="712.0" y="556">导师人数</text><rect fill="#eef6ff" height="56" stroke="#d6dfeb" stroke-width="1" width="172.0" x="866.0" y="520" /><text fill="#17304f" font-family="Microsoft YaHei" font-size="18" font-weight="bold" x="884.0" y="556">学生人数</text><rect fill="#eef6ff" height="56" stroke="#d6dfeb" stroke-width="1" width="172.0" x="1038.0" y="520" /><text fill="#17304f" font-family="Microsoft YaHei" font-size="18" font-weight="bold" x="1056.0" y="556">状态</text><rect fill="#ffffff" height="72" stroke="#edf1f6" stroke-width="1" width="172.0" x="350.0" y="576" /><text fill="#49627f" font-family="Microsoft YaHei" font-size="16" x="368.0" y="618">智能感知团队</text><rect fill="#ffffff" height="72" stroke="#edf1f6" stroke-width="1" width="172.0" x="522.0" y="576" /><text fill="#49627f" font-family="Microsoft YaHei" font-size="16" x="540.0" y="618">刘亚</text><rect fill="#ffffff" height="72" stroke="#edf1f6" stroke-width="1" width="172.0" x="694.0" y="576" /><text fill="#49627f" font-family="Microsoft YaHei" font-size="16" x="712.0" y="618">8</text><rect fill="#ffffff" height="72" stroke="#edf1f6" stroke-width="1" width="172.0" x="866.0" y="576" /><text fill="#49627f" font-family="Microsoft YaHei" font-size="16" x="884.0" y="618">32</text><rect fill="#ffffff" height="72" stroke="#edf1f6" stroke-width="1" width="172.0" x="1038.0" y="576" /><text fill="#49627f" font-family="Microsoft YaHei" font-size="16" x="1056.0" y="618">启用</text><rect fill="#ffffff" height="72" stroke="#edf1f6" stroke-width="1" width="172.0" x="350.0" y="648" /><text fill="#49627f" font-family="Microsoft YaHei" font-size="16" x="368.0" y="690">认知模型团队</text><rect fill="#ffffff" height="72" stroke="#edf1f6" stroke-width="1" width="172.0" x="522.0" y="648" /><text fill="#49627f" font-family="Microsoft YaHei" font-size="16" x="540.0" y="690">周青</text><rect fill="#ffffff" height="72" stroke="#edf1f6" stroke-width="1" width="172.0" x="694.0" y="648" /><text fill="#49627f" font-family="Microsoft YaHei" font-size="16" x="712.0" y="690">6</text><rect fill="#ffffff" height="72" stroke="#edf1f6" stroke-width="1" width="172.0" x="866.0" y="648" /><text fill="#49627f" font-family="Microsoft YaHei" font-size="16" x="884.0" y="690">21</text><rect fill="#ffffff" height="72" stroke="#edf1f6" stroke-width="1" width="172.0" x="1038.0" y="648" /><text fill="#49627f" font-family="Microsoft YaHei" font-size="16" x="1056.0" y="690">启用</text><rect fill="#ffffff" height="72" stroke="#edf1f6" stroke-width="1" width="172.0" x="350.0" y="720" /><text fill="#49627f" font-family="Microsoft YaHei" font-size="16" x="368.0" y="762">具身智能团队</text><rect fill="#ffffff" height="72" stroke="#edf1f6" stroke-width="1" width="172.0" x="522.0" y="720" /><text fill="#49627f" font-family="Microsoft YaHei" font-size="16" x="540.0" y="762">袁野</text><rect fill="#ffffff" height="72" stroke="#edf1f6" stroke-width="1" width="172.0" x="694.0" y="720" /><text fill="#49627f" font-family="Microsoft YaHei" font-size="16" x="712.0" y="762">5</text><rect fill="#ffffff" height="72" stroke="#edf1f6" stroke-width="1" width="172.0" x="866.0" y="720" /><text fill="#49627f" font-family="Microsoft YaHei" font-size="16" x="884.0" y="762">17</text><rect fill="#ffffff" height="72" stroke="#edf1f6" stroke-width="1" width="172.0" x="1038.0" y="720" /><text fill="#49627f" font-family="Microsoft YaHei" font-size="16" x="1056.0" y="762">筹建</text><rect fill="#f7f3ff" height="474" rx="18" ry="18" stroke="#183a75" stroke-width="2" width="340" x="1240" y="402" /><text fill="#12284d" font-family="Microsoft YaHei" font-size="18" font-weight="bold" x="1256" y="428">操作说明</text><text fill="#4d6287" font-family="Microsoft YaHei" font-size="13" x="1256" y="454">右侧面板用于说明详情、抽屉或弹窗中的关键动作。</text><rect fill="#ffffff" height="54" rx="12" ry="12" stroke="#d9d1eb" stroke-width="1" width="280" x="1270" y="472" /><text fill="#4f4a78" font-family="Microsoft YaHei" font-size="16" x="1292" y="505">筛选团队范围</text><rect fill="#ffffff" height="54" rx="12" ry="12" stroke="#d9d1eb" stroke-width="1" width="280" x="1270" y="544" /><text fill="#4f4a78" font-family="Microsoft YaHei" font-size="16" x="1292" y="577">打开团队详情</text><rect fill="#ffffff" height="54" rx="12" ry="12" stroke="#d9d1eb" stroke-width="1" width="280" x="1270" y="616" /><text fill="#4f4a78" font-family="Microsoft YaHei" font-size="16" x="1292" y="649">维护导师集合和研究方向</text><rect fill="#ffffff" height="54" rx="12" ry="12" stroke="#d9d1eb" stroke-width="1" width="280" x="1270" y="688" /><text fill="#4f4a78" font-family="Microsoft YaHei" font-size="16" x="1292" y="721">核对学生归属统计</text><rect fill="#17304f" height="76" rx="18" ry="18" stroke="none" width="340" x="1240" y="900" /><text fill="#ffffff" font-family="Microsoft YaHei" font-size="18" font-weight="bold" x="1280" y="946">主按钮：保存 / 提交 / 执行动作</text></svg>